<svg width="18" height="22" viewBox="0 0 18 22" fill="none" xmlns="http://www.w3.org/2000/svg">
<path d="M8.35 3.17133C8.285 3.38133 8.25 3.60433 8.25 3.83533C8.25 4.24933 8.586 4.58533 9 4.58533H13.5C13.6989 4.58533 13.8897 4.50631 14.0303 4.36566C14.171 4.22501 14.25 4.03424 14.25 3.83533C14.2501 3.61024 14.2164 3.38641 14.15 3.17133M8.35 3.17133C8.49203 2.71203 8.77738 2.31026 9.16426 2.02487C9.55115 1.73947 10.0192 1.58544 10.5 1.58533H12C13.012 1.58533 13.867 2.25333 14.15 3.17133M8.35 3.17133C7.974 3.19433 7.6 3.22133 7.226 3.25133C6.095 3.34533 5.25 4.30833 5.25 5.44333V7.58533M14.15 3.17133C14.526 3.19433 14.9 3.22133 15.274 3.25133C16.405 3.34533 17.25 4.30833 17.25 5.44333V15.8353C17.25 16.4321 17.0129 17.0044 16.591 17.4263C16.169 17.8483 15.5967 18.0853 15 18.0853H12.75M5.25 7.58533H1.875C1.254 7.58533 0.75 8.08933 0.75 8.71033V19.9603C0.75 20.5813 1.254 21.0853 1.875 21.0853H11.625C12.246 21.0853 12.75 20.5813 12.75 19.9603V18.0853M5.25 7.58533H11.625C12.246 7.58533 12.75 8.08933 12.75 8.71033V18.0853M4.5 15.0853L6 16.5853L9 12.8353" stroke="#81A08F" stroke-width="1.5" stroke-linecap="round" stroke-linejoin="round"/>
</svg>
