<svg width="20" height="19" viewBox="0 0 20 19" fill="none" xmlns="http://www.w3.org/2000/svg">
<path d="M11 13.3351V14.3351C11 15.1307 10.6839 15.8938 10.1213 16.4564C9.55871 17.019 8.79565 17.3351 8 17.3351H4C3.20435 17.3351 2.44129 17.019 1.87868 16.4564C1.31607 15.8938 1 15.1307 1 14.3351V4.33508C1 3.53943 1.31607 2.77637 1.87868 2.21376C2.44129 1.65115 3.20435 1.33508 4 1.33508H8C8.79565 1.33508 9.55871 1.65115 10.1213 2.21376C10.6839 2.77637 11 3.53943 11 4.33508V5.33508M15 13.3351L19 9.33508L15 13.3351ZM19 9.33508L15 5.33508L19 9.33508ZM19 9.33508H5H19Z" stroke="#81A08F" stroke-width="2" stroke-linecap="round" stroke-linejoin="round"/>
</svg>
