<svg width="20" height="21" viewBox="0 0 20 21" fill="none" xmlns="http://www.w3.org/2000/svg">
<path d="M18.2501 12.4853V16.7353C18.2501 17.8293 17.4631 18.7713 16.3781 18.9153C14.2911 19.1923 12.1621 19.3353 10.0001 19.3353C7.83806 19.3353 5.70906 19.1923 3.62206 18.9153C2.53706 18.7713 1.75006 17.8293 1.75006 16.7353V12.4853M18.2501 12.4853C18.4875 12.279 18.6775 12.0237 18.807 11.737C18.9364 11.4502 19.0023 11.1389 19.0001 10.8243V7.04133C19.0001 5.96033 18.2321 5.02633 17.1631 4.86633C16.0304 4.69675 14.892 4.56766 13.7501 4.47933M18.2501 12.4853C18.0561 12.6503 17.8301 12.7803 17.5771 12.8653C15.1333 13.6762 12.5748 14.0881 10.0001 14.0853C7.35206 14.0853 4.80506 13.6563 2.42306 12.8653C2.17631 12.7832 1.94778 12.6542 1.75006 12.4853M1.75006 12.4853C1.5126 12.279 1.32262 12.0237 1.19315 11.737C1.06369 11.4502 0.997818 11.1389 1.00006 10.8243V7.04133C1.00006 5.96033 1.76806 5.02633 2.83706 4.86633C3.96975 4.69674 5.10814 4.56766 6.25006 4.47933M13.7501 4.47933V3.58533C13.7501 2.98859 13.513 2.41629 13.091 1.99434C12.6691 1.57238 12.0968 1.33533 11.5001 1.33533H8.50006C7.90332 1.33533 7.33102 1.57238 6.90907 1.99434C6.48711 2.41629 6.25006 2.98859 6.25006 3.58533V4.47933M13.7501 4.47933C11.2538 4.2864 8.74633 4.2864 6.25006 4.47933M10.0001 11.0853H10.0081V11.0933H10.0001V11.0853Z" stroke="#ABC0B4" stroke-width="1.5" stroke-linecap="round" stroke-linejoin="round"/>
</svg>
