<svg width="56" height="56" viewBox="0 0 56 56" fill="none" xmlns="http://www.w3.org/2000/svg">
<path fill-rule="evenodd" clip-rule="evenodd" d="M36.249 28C36.249 28.1989 36.17 28.3897 36.0294 28.5303C35.8887 28.671 35.6979 28.75 35.499 28.75L22.309 28.75L27.779 34.22C27.9115 34.3622 27.9836 34.5502 27.9802 34.7445C27.9768 34.9388 27.8981 35.1242 27.7606 35.2616C27.6232 35.399 27.4378 35.4777 27.2435 35.4812C27.0492 35.4846 26.8612 35.4125 26.719 35.28L19.969 28.53C19.8286 28.3894 19.7497 28.1988 19.7497 28C19.7497 27.8013 19.8286 27.6106 19.969 27.47L26.719 20.72C26.7877 20.6463 26.8705 20.5872 26.9625 20.5462C27.0545 20.5052 27.1538 20.4832 27.2545 20.4814C27.3552 20.4796 27.4552 20.4982 27.5486 20.5359C27.642 20.5736 27.7268 20.6297 27.7981 20.701C27.8693 20.7722 27.9254 20.857 27.9631 20.9504C28.0009 21.0438 28.0194 21.1438 28.0176 21.2445C28.0158 21.3452 27.9938 21.4445 27.9528 21.5365C27.9118 21.6285 27.8527 21.7113 27.779 21.78L22.309 27.25L35.499 27.25C35.6979 27.25 35.8887 27.329 36.0294 27.4697C36.17 27.6103 36.249 27.8011 36.249 28Z" fill="#FFFFFF"/>
<rect x="55.499" y="55.5" width="55" height="55" rx="27.5" transform="rotate(180 55.499 55.5)" stroke="#FFFFFF"/>
</svg>
