<svg width="120" height="33" viewBox="0 0 120 33" fill="none" xmlns="http://www.w3.org/2000/svg">
<path d="M18.0391 26.1112V25.8696H19.421C19.7119 25.8696 19.9543 25.8374 20.1483 25.773C20.3584 25.6925 20.5119 25.5476 20.6089 25.3383C20.7059 25.1129 20.7544 24.7989 20.7544 24.3964V10.4852C20.7544 10.0987 20.7059 9.80893 20.6089 9.61572C20.5281 9.42251 20.3988 9.2937 20.221 9.2293C20.0594 9.14879 19.8654 9.10854 19.6392 9.10854H18.0391V8.86702H24.8758L32.6581 21.4499V10.4852C32.6581 10.1309 32.6096 9.85723 32.5126 9.66402C32.4318 9.47081 32.3106 9.33395 32.149 9.25345C31.9873 9.15684 31.7934 9.10854 31.5671 9.10854H29.7731V8.86702H35.7128V9.10854H34.0157C33.7733 9.10854 33.5632 9.15684 33.3854 9.25345C33.2238 9.35005 33.1026 9.50301 33.0217 9.71232C32.9409 9.92164 32.9005 10.2115 32.9005 10.5818V26.1112H30.9125L20.9968 10.0746V24.3964C20.9968 24.7989 21.0291 25.1129 21.0938 25.3383C21.1746 25.5476 21.2958 25.6925 21.4574 25.773C21.6191 25.8374 21.8292 25.8696 22.0878 25.8696H23.8818V26.1112H18.0391Z" fill="#F1F5F3"/>
<path d="M36.3877 26.1112V25.8696H37.3817C37.6079 25.8696 37.8019 25.8294 37.9635 25.7489C38.1251 25.6523 38.2464 25.5074 38.3272 25.3142C38.4241 25.1209 38.4726 24.8794 38.4726 24.5896V10.5093C38.4726 10.0907 38.4241 9.78478 38.3272 9.59157C38.2302 9.39836 38.0928 9.26955 37.915 9.20514C37.7534 9.14074 37.5675 9.10854 37.3574 9.10854H36.3877V8.86702H49.7945L49.9642 13.4075H49.7218L49.649 12.6346C49.5682 11.7652 49.3904 11.0729 49.1157 10.5576C48.8409 10.0263 48.4288 9.65597 47.8792 9.44666C47.3459 9.22124 46.6428 9.10854 45.77 9.10854H43.0062V16.9819H48.5581V17.2234H43.0062V25.8696H46.5216C47.4105 25.8696 48.1217 25.7569 48.655 25.5315C49.2046 25.3061 49.6167 24.9358 49.8915 24.4206C50.1662 23.9053 50.3359 23.2049 50.4006 22.3194L50.4733 21.5707H50.7158L50.5461 26.1112H36.3877Z" fill="#F1F5F3"/>
<path d="M51.438 26.1112V25.8696H52.3107C52.6017 25.8696 52.8603 25.8294 53.0865 25.7489C53.3128 25.6523 53.5149 25.4832 53.6926 25.2417C53.8866 24.9841 54.0563 24.6299 54.2018 24.179L58.8081 8.86702H62.2992L67.3419 24.2998C67.4874 24.6701 67.6409 24.976 67.8025 25.2176C67.9642 25.443 68.15 25.612 68.3602 25.7247C68.5864 25.8213 68.8289 25.8696 69.0875 25.8696H69.2087V26.1112H60.9173V25.8696H61.9355C62.2911 25.8696 62.5336 25.7972 62.6629 25.6523C62.7922 25.5074 62.8568 25.3142 62.8568 25.0726C62.8568 24.9599 62.8406 24.8472 62.8083 24.7345C62.7922 24.6057 62.7679 24.4689 62.7356 24.3239C62.7033 24.179 62.6709 24.0422 62.6386 23.9134L61.4264 19.7835H55.7776L54.6624 23.4786C54.5977 23.7041 54.5412 23.9134 54.4927 24.1066C54.4442 24.2998 54.4038 24.4769 54.3715 24.6379C54.3391 24.7828 54.323 24.9277 54.323 25.0726C54.323 25.3464 54.3876 25.5476 54.5169 25.6764C54.6624 25.8052 54.8967 25.8696 55.22 25.8696H56.8443V26.1112H51.438ZM55.8503 19.542H61.3537L59.6324 13.5524C59.5516 13.2626 59.4546 12.9164 59.3414 12.5139C59.2283 12.1114 59.1152 11.6927 59.002 11.258C58.8889 10.8233 58.7758 10.4047 58.6626 10.0021C58.598 10.292 58.5252 10.5818 58.4444 10.8716C58.3636 11.1614 58.2747 11.4593 58.1777 11.7652C58.0969 12.055 58.008 12.3448 57.9111 12.6346C57.8302 12.9245 57.7414 13.2143 57.6444 13.5041L55.8503 19.542Z" fill="#F1F5F3"/>
<path d="M71.2105 26.1112V25.8696H71.9378C72.2611 25.8696 72.5197 25.8294 72.7136 25.7489C72.9237 25.6684 73.0773 25.5154 73.1743 25.29C73.2874 25.0646 73.344 24.7426 73.344 24.3239V9.10854H72.1318C71.2267 9.10854 70.4994 9.22124 69.9498 9.44666C69.4003 9.65597 68.9962 10.0182 68.7376 10.5335C68.479 11.0487 68.3174 11.7491 68.2528 12.6346L68.18 13.7698H67.9376L68.1073 8.86702H83.187L83.3567 13.7698H83.1142L83.0173 12.6346C82.9526 11.7491 82.791 11.0487 82.5324 10.5335C82.2738 10.0182 81.8697 9.65597 81.3202 9.44666C80.7707 9.22124 80.0433 9.10854 79.1382 9.10854H77.9503V24.3722C77.9503 24.7748 78.0069 25.0887 78.12 25.3142C78.2331 25.5396 78.3948 25.6925 78.6049 25.773C78.815 25.8374 79.0655 25.8696 79.3564 25.8696H80.0838V26.1112H71.2105Z" fill="#F1F5F3"/>
<path d="M83.8809 26.1112V25.8696H84.9234C85.1012 25.8696 85.2709 25.8294 85.4325 25.7489C85.5942 25.6684 85.7235 25.5315 85.8204 25.3383C85.9174 25.1451 85.9659 24.8875 85.9659 24.5655V10.461C85.9659 10.1229 85.9093 9.85723 85.7962 9.66402C85.6992 9.45471 85.5618 9.3098 85.3841 9.2293C85.2063 9.14879 85.0123 9.10854 84.8022 9.10854H83.8809V8.86702H92.633V9.10854H91.6632C91.3885 9.10854 91.1702 9.14879 91.0086 9.2293C90.8632 9.3098 90.75 9.44666 90.6692 9.63987C90.5884 9.81698 90.548 10.0665 90.548 10.3886V25.8696H93.2391C94.322 25.8696 95.1866 25.7328 95.8331 25.4591C96.4958 25.1853 96.9888 24.7345 97.312 24.1066C97.6353 23.4786 97.8373 22.6253 97.9181 21.5465L97.9666 20.6288H98.209L98.0151 26.1112H83.8809Z" fill="#F1F5F3"/>
<path d="M101.195 26.1112V25.8696H101.995C102.351 25.8696 102.642 25.8294 102.868 25.7489C103.094 25.6523 103.264 25.4913 103.377 25.2659C103.506 25.0243 103.571 24.6862 103.571 24.2515V20.1216L99.0133 10.3886C98.8839 10.0665 98.7385 9.81698 98.5769 9.63987C98.4314 9.44666 98.2698 9.3098 98.092 9.2293C97.9304 9.14879 97.7445 9.10854 97.5344 9.10854H97.4616V8.86702H105.947V9.10854H105.656C105.026 9.10854 104.565 9.18099 104.274 9.3259C103.983 9.47081 103.838 9.71232 103.838 10.0504C103.838 10.2437 103.87 10.453 103.935 10.6784C104.016 10.9038 104.129 11.1775 104.274 11.4995L106.626 16.7162C106.771 16.9739 106.884 17.2073 106.965 17.4166C107.062 17.6098 107.151 17.8111 107.232 18.0204C107.329 18.2297 107.442 18.4712 107.571 18.745C107.701 19.0187 107.862 19.3487 108.056 19.7352C108.137 19.5098 108.226 19.2763 108.323 19.0348C108.42 18.7772 108.525 18.5276 108.638 18.2861L111.402 11.5961C111.563 11.2097 111.677 10.8957 111.741 10.6542C111.822 10.4127 111.862 10.2034 111.862 10.0263C111.862 9.68817 111.741 9.45471 111.499 9.3259C111.256 9.18099 110.877 9.10854 110.359 9.10854H109.268V8.86702H114.238V9.10854H113.972C113.697 9.10854 113.446 9.15684 113.22 9.25345C112.994 9.33395 112.784 9.48691 112.59 9.71232C112.412 9.93774 112.234 10.2598 112.056 10.6784L108.177 20.0008V24.2756C108.177 24.7104 108.234 25.0404 108.347 25.2659C108.46 25.4913 108.614 25.6523 108.808 25.7489C109.002 25.8294 109.228 25.8696 109.487 25.8696H110.578V26.1112H101.195Z" fill="#F1F5F3"/>
<path fill-rule="evenodd" clip-rule="evenodd" d="M17.6914 26.4562V25.5246H19.4196C19.683 25.5246 19.8831 25.4956 20.0296 25.4483C20.148 25.4012 20.232 25.3233 20.2911 25.198C20.3605 25.0341 20.4067 24.775 20.4067 24.3964V10.4852C20.4067 10.1164 20.3586 9.89114 20.2978 9.77002L20.2871 9.74874C20.239 9.63367 20.1774 9.58112 20.1013 9.55355L20.0826 9.54677L20.0648 9.53789C19.9619 9.48662 19.8236 9.45356 19.6378 9.45356H17.6914V8.52201H25.0679L32.3104 20.2322V10.4852C32.3104 10.1542 32.2638 9.9424 32.2015 9.81832L32.1909 9.79704C32.1365 9.66711 32.0682 9.59961 31.9928 9.56205L31.9809 9.55612L31.9695 9.5493C31.8716 9.49078 31.7419 9.45356 31.5658 9.45356H29.4254V8.52201H50.1269L50.3224 13.7525H49.4051L49.3029 12.6669C49.2244 11.8224 49.0538 11.1795 48.8085 10.7195L48.8064 10.7156C48.5698 10.2581 48.2224 9.94727 47.7542 9.76893L47.7426 9.76449C47.268 9.56392 46.6163 9.45356 45.7687 9.45356H43.3512V16.6369H48.9031V17.5684H43.3512V25.5246H46.5203C47.385 25.5246 48.0445 25.4142 48.5185 25.2139L48.5218 25.2125C48.998 25.0172 49.348 24.7018 49.5843 24.2587C49.8278 23.8021 49.991 23.1546 50.0538 22.2944L50.0544 22.2861L50.1576 21.2257H51.0739L50.8784 26.4562H36.04V25.5246H37.3803C37.5588 25.5246 37.6935 25.4941 37.7951 25.4462C37.8811 25.3917 37.9527 25.3094 38.0061 25.1815L38.0153 25.1595C38.0815 25.0277 38.125 24.8433 38.125 24.5896V10.5093C38.125 10.1031 38.0756 9.86446 38.0161 9.74587C37.9525 9.61919 37.8776 9.55919 37.7953 9.5294L37.785 9.52565C37.6718 9.48055 37.531 9.45356 37.3561 9.45356H34.0144C33.8222 9.45356 33.6733 9.49092 33.5565 9.55281C33.4756 9.60298 33.401 9.68777 33.3437 9.83618C33.2849 9.98852 33.2456 10.2299 33.2456 10.5818V26.4562H30.7178L21.3418 11.2926V24.3964C21.3418 24.7756 21.3721 25.048 21.4213 25.2285C21.4746 25.3599 21.5384 25.4244 21.5994 25.4583C21.7053 25.4975 21.863 25.5246 22.0865 25.5246H24.2268V26.4562H17.6914ZM21.4427 25.7661C21.2878 25.6844 21.171 25.5418 21.0925 25.3383C21.0717 25.2659 21.0543 25.1843 21.0402 25.0936C21.0104 24.902 20.9955 24.6696 20.9955 24.3964V10.0746L30.9112 26.1112H32.8992V10.5818C32.8992 10.5489 32.8995 10.5167 32.9002 10.4852C32.9045 10.2709 32.9234 10.0858 32.957 9.92983C32.9743 9.84961 32.9954 9.77712 33.0204 9.71233C33.1012 9.50302 33.2225 9.35006 33.3841 9.25345C33.4116 9.23849 33.4399 9.22469 33.469 9.21205C33.6277 9.14304 33.8095 9.10854 34.0144 9.10854H35.7115V8.86703H29.7718V9.10854H31.5658C31.757 9.10854 31.9252 9.14304 32.0702 9.21205C32.0968 9.22469 32.1226 9.23849 32.1477 9.25345C32.3093 9.33396 32.4305 9.47081 32.5113 9.66402C32.5497 9.74055 32.5805 9.82969 32.6037 9.93147C32.6391 10.0867 32.6568 10.2712 32.6568 10.4852V21.4499L24.8745 8.86703H18.0377V9.10854H19.6378C19.8473 9.10854 20.0291 9.14304 20.1832 9.21205C20.1955 9.21758 20.2077 9.22333 20.2197 9.2293C20.3975 9.2937 20.5268 9.42251 20.6076 9.61572C20.6226 9.64564 20.6365 9.67788 20.6492 9.71243C20.6862 9.81338 20.7134 9.9341 20.7306 10.0746C20.7366 10.1234 20.7414 10.1747 20.745 10.2283C20.7473 10.2633 20.7492 10.2992 20.7505 10.3362C20.7522 10.3842 20.7531 10.4338 20.7531 10.4852V24.3964C20.7531 24.6643 20.7316 24.8929 20.6886 25.0824C20.667 25.1776 20.64 25.2629 20.6076 25.3383C20.5133 25.5418 20.3656 25.6844 20.1644 25.7661C20.1587 25.7685 20.1528 25.7708 20.147 25.773C19.953 25.8374 19.7106 25.8696 19.4196 25.8696H18.0377V26.1112H23.8805V25.8696H22.0865C21.8279 25.8696 21.6178 25.8374 21.4561 25.773C21.4516 25.7708 21.4471 25.7685 21.4427 25.7661ZM37.9622 25.7489C37.9502 25.7549 37.938 25.7606 37.9257 25.7661C37.7716 25.8351 37.5898 25.8696 37.3803 25.8696H36.3863V26.1112H50.5447L50.7144 21.5707H50.472L50.3993 22.3194C50.3797 22.5873 50.3505 22.8383 50.3117 23.0724C50.2223 23.6118 50.0818 24.0612 49.8902 24.4206C49.6154 24.9358 49.2032 25.3061 48.6537 25.5315C48.4155 25.6322 48.1417 25.7104 47.8325 25.7661C47.4495 25.8351 47.0121 25.8696 46.5203 25.8696H43.0049V17.2234H48.5567V16.9819H43.0049V9.10854H45.7687C46.2516 9.10854 46.6825 9.14304 47.0615 9.21205C47.3675 9.26776 47.6397 9.34597 47.8779 9.44666C48.4274 9.65597 48.8396 10.0263 49.1144 10.5576C49.3162 10.9362 49.4658 11.4104 49.563 11.9803C49.598 12.186 49.6263 12.4041 49.6477 12.6347L49.7204 13.4075H49.9629L49.933 12.6083L49.7932 8.86703H36.3863V9.10854H37.3561C37.5662 9.10854 37.7521 9.14074 37.9137 9.20515C37.9198 9.20737 37.9259 9.20967 37.932 9.21205C38.1009 9.27852 38.2322 9.40503 38.3258 9.59157C38.4228 9.78478 38.4713 10.0907 38.4713 10.5093V24.5896C38.4713 24.8794 38.4228 25.1209 38.3258 25.3142C38.245 25.5074 38.1238 25.6523 37.9622 25.7489ZM51.0903 26.4562V25.5246H52.3094C52.5638 25.5246 52.7785 25.4901 52.9583 25.4276C53.113 25.3593 53.2658 25.2364 53.412 25.0377L53.4142 25.0347C53.5766 24.819 53.7313 24.5049 53.8697 24.0766L58.549 8.52201H62.5494L67.6668 24.1834C67.8041 24.5315 67.9447 24.809 68.0863 25.0215C68.2174 25.2033 68.3595 25.3303 68.5097 25.4137C68.6867 25.487 68.8777 25.5246 69.0861 25.5246H69.5537V26.4562H60.5696V25.5246H61.9342C62.2664 25.5246 62.3765 25.4524 62.4027 25.4231C62.4627 25.3558 62.5091 25.2512 62.5091 25.0726C62.5091 24.9933 62.4978 24.9124 62.474 24.8293L62.4666 24.8037L62.4633 24.7773C62.4487 24.6607 62.4265 24.5346 62.3962 24.3988C62.365 24.259 62.3339 24.1272 62.3029 24.0036L61.1655 20.1285H56.0338L54.9941 23.5734C54.9939 23.5742 54.9937 23.5749 54.9934 23.5757C54.9299 23.7972 54.8746 24.002 54.8274 24.1903C54.7799 24.3792 54.7408 24.5509 54.7098 24.7056L54.7083 24.7128C54.6813 24.8337 54.668 24.9535 54.668 25.0726C54.668 25.287 54.7163 25.3831 54.7537 25.4252C54.8103 25.4699 54.942 25.5246 55.2187 25.5246H57.1894V26.4562H51.0903ZM54.5156 25.6764C54.3863 25.5476 54.3217 25.3464 54.3217 25.0726C54.3217 24.9773 54.3287 24.8819 54.3427 24.7866C54.3499 24.737 54.3591 24.6875 54.3701 24.6379C54.3937 24.5206 54.4216 24.3946 54.4537 24.2601C54.4541 24.2584 54.4545 24.2567 54.4549 24.255C54.4665 24.2066 54.4787 24.1572 54.4914 24.1066C54.5399 23.9134 54.5964 23.7041 54.6611 23.4786L55.7763 19.7835H61.4251L62.6373 23.9134C62.6696 24.0422 62.7019 24.179 62.7343 24.3239C62.7666 24.4689 62.7908 24.6057 62.807 24.7345C62.8393 24.8472 62.8555 24.9599 62.8555 25.0726C62.8555 25.3142 62.7908 25.5074 62.6615 25.6523C62.6215 25.6972 62.5705 25.7351 62.5087 25.7661C62.3711 25.8351 62.1796 25.8696 61.9342 25.8696H60.916V26.1112H69.2074V25.8696H69.0861C68.8676 25.8696 68.6606 25.8351 68.4651 25.7661C68.4293 25.7535 68.3939 25.7397 68.3588 25.7247C68.1487 25.612 67.9629 25.443 67.8012 25.2176C67.6396 24.976 67.4861 24.6701 67.3406 24.2998L62.2979 8.86703H58.8068L54.2004 24.179C54.1555 24.3182 54.1083 24.4482 54.0588 24.569C54.0579 24.5711 54.057 24.5732 54.0562 24.5754C54.0402 24.6142 54.0239 24.652 54.0075 24.689C53.9104 24.9064 53.805 25.0907 53.6913 25.2417C53.5135 25.4832 53.3115 25.6523 53.0852 25.7489C53.0684 25.7549 53.0515 25.7606 53.0343 25.7661C52.8204 25.8351 52.5788 25.8696 52.3094 25.8696H51.4366V26.1112H56.843V25.8696H55.2187C54.9821 25.8696 54.7931 25.8351 54.6518 25.7661C54.6 25.7409 54.5546 25.711 54.5156 25.6764ZM61.3524 19.542L59.6311 13.5524C59.5502 13.2626 59.4533 12.9164 59.3401 12.5139C59.227 12.1114 59.1139 11.6927 59.0007 11.258C58.9507 11.0658 58.9007 10.8767 58.8506 10.6908C58.814 10.5548 58.7775 10.4205 58.7409 10.2879C58.7144 10.1918 58.6878 10.0965 58.6613 10.0021C58.61 10.232 58.5537 10.4618 58.4922 10.6917C58.4762 10.7516 58.4598 10.8116 58.4431 10.8716C58.3623 11.1614 58.2734 11.4593 58.1764 11.7652C58.0956 12.055 58.0067 12.3448 57.9097 12.6347C57.8289 12.9245 57.74 13.2143 57.6431 13.5041L55.849 19.542H61.3524ZM56.3127 19.1969H60.893L59.2973 13.6448C59.2166 13.3552 59.1197 13.0093 59.0066 12.6069C58.8931 12.2032 58.7797 11.7836 58.6664 11.3482C58.6163 11.5174 58.5637 11.6892 58.5085 11.8634C58.4273 12.1542 58.3382 12.4449 58.2411 12.7355C58.1598 13.0263 58.0706 13.317 57.9735 13.6076L56.3127 19.1969ZM70.8628 26.4562V25.5246H71.9365C72.2361 25.5246 72.4438 25.4866 72.5791 25.4304L72.5879 25.4267C72.7022 25.383 72.7906 25.3028 72.8546 25.1541L72.8626 25.1354C72.9408 24.9796 72.9963 24.7201 72.9963 24.3239V9.45356H72.1305C71.2493 9.45356 70.5721 9.564 70.0804 9.76569L70.0722 9.76903C69.6021 9.94811 69.2652 10.2512 69.0461 10.6878C68.8158 11.1466 68.66 11.7966 68.597 12.6583C68.5969 12.6587 68.597 12.6578 68.597 12.6583L68.5036 14.1148H67.5778L67.7714 8.52201H83.5202L83.5333 8.89865V8.52201H92.978V9.45356H91.6619C91.4215 9.45356 91.2651 9.48877 91.1693 9.53441C91.1099 9.56929 91.0445 9.63658 90.9876 9.77257L90.9833 9.78272C90.9321 9.89494 90.893 10.0876 90.893 10.3886V25.5246H93.2377C94.2967 25.5246 95.1095 25.39 95.6963 25.1415L95.6992 25.1403C96.287 24.8975 96.7172 24.5033 97.0025 23.9491C97.2961 23.3788 97.4919 22.5776 97.5711 21.5246C97.5712 21.5234 97.5713 21.5221 97.5714 21.5209L97.6367 20.2838H98.5665L98.3481 26.4562H83.5333V25.5246H84.9221C85.0452 25.5246 85.162 25.4972 85.2763 25.4403C85.3583 25.3994 85.439 25.3242 85.5093 25.184C85.5734 25.0564 85.6182 24.858 85.6182 24.5655V10.461C85.6182 10.1551 85.566 9.95799 85.4957 9.83787L85.4874 9.8236L85.4804 9.80861C85.4115 9.65981 85.3281 9.58355 85.2394 9.54339C85.11 9.48478 84.9654 9.45356 84.8009 9.45356H83.5525L83.7138 14.1148H82.7948L82.6705 12.6597C82.6075 11.7973 82.4517 11.1469 82.2213 10.6878C82.0022 10.2512 81.6653 9.94801 81.1952 9.76893L81.1869 9.7658C80.6952 9.5641 80.0181 9.45356 79.1369 9.45356H78.2953V24.3723C78.2953 24.7498 78.3495 25.0026 78.4285 25.1599C78.5058 25.3139 78.6028 25.4002 78.7176 25.4469C78.8841 25.4963 79.0946 25.5246 79.3551 25.5246H80.4288V26.4562H70.8628ZM78.5861 25.7661C78.3845 25.6839 78.2287 25.5333 78.1187 25.3142C78.0055 25.0887 77.949 24.7748 77.949 24.3723V9.10854H79.1369C79.6377 9.10854 80.084 9.14304 80.476 9.21205C80.7924 9.26776 81.0734 9.34597 81.3189 9.44666C81.8684 9.65597 82.2724 10.0182 82.5311 10.5335C82.7235 10.9168 82.8622 11.4027 82.9472 11.9911C82.9765 12.1935 82.9994 12.408 83.0159 12.6347L83.1129 13.7698H83.3553L83.1856 8.86703H68.106L67.9363 13.7698H68.1787L68.2514 12.6347C68.2734 12.3332 68.3067 12.0532 68.3512 11.7946C68.4374 11.2937 68.5658 10.8733 68.7363 10.5335C68.9949 10.0182 69.399 9.65597 69.9485 9.44666C70.194 9.34597 70.4749 9.26776 70.7914 9.21205C71.1833 9.14304 71.6297 9.10854 72.1305 9.10854H73.3426V24.3239C73.3426 24.7426 73.2861 25.0646 73.1729 25.29C73.076 25.5154 72.9224 25.6684 72.7123 25.7489C72.6979 25.7549 72.6832 25.7606 72.6681 25.7661C72.4796 25.8351 72.2358 25.8696 71.9365 25.8696H71.2092V26.1112H80.0824V25.8696H79.3551C79.0642 25.8696 78.8137 25.8374 78.6035 25.773C78.5977 25.7708 78.5919 25.7685 78.5861 25.7661ZM97.7926 22.5672C97.6848 23.1787 97.5242 23.6918 97.3107 24.1066C96.9874 24.7345 96.4945 25.1854 95.8318 25.4591C95.5099 25.5954 95.1339 25.6977 94.7038 25.7661C94.2701 25.8351 93.7814 25.8696 93.2377 25.8696H90.5467V10.3886C90.5467 10.0665 90.5871 9.81699 90.6679 9.63987C90.7487 9.44666 90.8618 9.3098 91.0073 9.2293C91.0193 9.22333 91.0316 9.21758 91.0442 9.21205C91.2016 9.14304 91.4075 9.10854 91.6619 9.10854H92.6316V8.86703H83.8796V9.10854H84.8009C84.9954 9.10854 85.1761 9.14304 85.3429 9.21205C85.3563 9.21758 85.3695 9.22333 85.3827 9.2293C85.5605 9.3098 85.6979 9.45471 85.7949 9.66402C85.908 9.85724 85.9646 10.1229 85.9646 10.461V24.5655C85.9646 24.8875 85.9161 25.1451 85.8191 25.3383C85.7221 25.5315 85.5928 25.6684 85.4312 25.7489C85.4192 25.7549 85.4072 25.7606 85.3951 25.7661C85.2444 25.8351 85.0867 25.8696 84.9221 25.8696H83.8796V26.1112H98.0138L98.2077 20.6288H97.9653L97.9168 21.5465C97.8894 21.9127 97.848 22.2529 97.7926 22.5672ZM100.848 26.4562V25.5246H101.994C102.321 25.5246 102.565 25.4879 102.74 25.4276C102.884 25.3638 102.99 25.2629 103.066 25.1116L103.07 25.1034C103.161 24.9329 103.223 24.6595 103.223 24.2515V20.1981L98.6898 10.5169C98.5696 10.2175 98.4436 10.0082 98.3193 9.87196L98.3083 9.85991L98.2985 9.84689C98.1796 9.68896 98.0609 9.59483 97.9473 9.54339L97.9357 9.53811C97.8294 9.48517 97.6981 9.45356 97.5331 9.45356H97.114V8.52201H106.292V9.45356H105.655C105.037 9.45356 104.644 9.5269 104.428 9.6345C104.332 9.68213 104.276 9.73682 104.243 9.79323C104.208 9.85051 104.183 9.93133 104.183 10.0504C104.183 10.2029 104.208 10.3765 104.263 10.573C104.34 10.7849 104.448 11.046 104.589 11.358L106.934 16.5608C107.078 16.8174 107.195 17.0565 107.281 17.2771C107.379 17.4728 107.468 17.6757 107.55 17.8859C107.645 18.0919 107.756 18.3293 107.883 18.5981C107.924 18.6832 107.967 18.7739 108.014 18.8703C108.108 18.6224 108.21 18.3815 108.319 18.1474L111.08 11.4648C111.239 11.0845 111.346 10.7853 111.405 10.5653L111.411 10.5449C111.484 10.3246 111.515 10.154 111.515 10.0263C111.515 9.78 111.436 9.6841 111.335 9.63033L111.319 9.62213C111.159 9.52636 110.857 9.45356 110.358 9.45356H108.921V8.52201H114.583V9.45356H113.97C113.737 9.45356 113.534 9.4944 113.355 9.57057L113.336 9.57899C113.18 9.63444 113.019 9.744 112.856 9.93127C112.707 10.1227 112.545 10.4114 112.375 10.8114C112.374 10.8119 112.375 10.811 112.375 10.8114L108.522 20.0695V24.2756C108.522 24.6904 108.578 24.957 108.656 25.1116C108.738 25.2768 108.839 25.3765 108.951 25.4351C109.092 25.4917 109.268 25.5246 109.485 25.5246H110.923V26.4562H100.848ZM108.806 25.7489C108.612 25.6523 108.459 25.4913 108.346 25.2659C108.233 25.0404 108.176 24.7104 108.176 24.2756V20.0008L111.633 11.6927L112.055 10.6784C112.089 10.5986 112.123 10.5223 112.157 10.4495C112.301 10.1405 112.445 9.89478 112.588 9.71233C112.782 9.48692 112.993 9.33396 113.219 9.25345C113.254 9.23849 113.289 9.22469 113.326 9.21205C113.523 9.14304 113.738 9.10854 113.97 9.10854H114.237V8.86703H109.267V9.10854H110.358C110.715 9.10854 111.006 9.14304 111.232 9.21205C111.334 9.24304 111.422 9.28099 111.497 9.32591C111.74 9.45471 111.861 9.68818 111.861 10.0263C111.861 10.1216 111.849 10.2262 111.826 10.3401C111.812 10.4094 111.793 10.4822 111.77 10.5584C111.77 10.5591 111.77 10.5598 111.77 10.5606C111.761 10.5912 111.751 10.6224 111.74 10.6542C111.675 10.8957 111.562 11.2097 111.401 11.5961L108.637 18.2861C108.524 18.5276 108.419 18.7772 108.322 19.0348C108.287 19.1214 108.253 19.2071 108.22 19.2916C108.162 19.4428 108.107 19.5906 108.055 19.7352C108.028 19.682 108.002 19.63 107.977 19.579C107.93 19.4855 107.885 19.3956 107.843 19.3092C107.74 19.1001 107.649 18.9121 107.57 18.745C107.441 18.4713 107.328 18.2297 107.231 18.0204C107.15 17.8111 107.061 17.6098 106.964 17.4166C106.883 17.2073 106.77 16.9739 106.624 16.7162L104.273 11.4995C104.127 11.1775 104.014 10.9038 103.933 10.6784C103.869 10.453 103.836 10.2437 103.836 10.0504C103.836 9.71233 103.982 9.47081 104.273 9.32591C104.363 9.28099 104.469 9.24304 104.592 9.21205C104.866 9.14304 105.22 9.10854 105.655 9.10854H105.946V8.86703H97.4603V9.10854H97.5331C97.7276 9.10854 97.9013 9.14304 98.0543 9.21205C98.0665 9.21758 98.0787 9.22333 98.0907 9.2293C98.2684 9.3098 98.4301 9.44666 98.5755 9.63987C98.7372 9.81699 98.8826 10.0665 99.0119 10.3886L103.57 20.1216V24.2515C103.57 24.6862 103.505 25.0243 103.376 25.2659C103.263 25.4913 103.093 25.6523 102.867 25.7489C102.85 25.7549 102.833 25.7606 102.815 25.7661C102.597 25.8351 102.323 25.8696 101.994 25.8696H101.194V26.1112H110.576V25.8696H109.485C109.246 25.8696 109.034 25.8351 108.85 25.7661C108.835 25.7606 108.821 25.7549 108.806 25.7489Z" fill="#F1F5F3"/>
<path d="M12.645 8.39783C12.1353 8.24148 9.52796 7.38155 9.33576 7.30337C9.24384 7.26863 9.17698 7.09492 9.14355 6.79959C8.86778 4.59332 8.43322 2.32621 8.24102 2.07432C8.09896 1.88322 7.61426 1.94403 7.48055 2.16118C7.34684 2.37833 6.72845 4.57593 6.36075 6.17418L6.11842 7.21651C1.37179 8.78001 1.11272 8.74527 3.2604 9.43147L5.15739 10.0395C6.23541 10.3869 6.26047 10.3956 6.31897 10.6736C6.40254 11.0731 6.94573 13.0188 7.15464 13.9482C7.59755 15.946 8.50009 14.7126 9.29398 10.995L9.47782 10.1437C9.5781 10.1264 10.2132 10.0656 12.9542 9.44886C13.581 9.30119 13.3971 8.62367 12.645 8.39783ZM11.4584 8.82344C11.3915 8.88424 9.56138 9.34461 9.20204 9.34461C8.76749 9.34461 8.66721 9.56176 8.17416 11.603C7.84825 12.9493 7.82319 12.9754 7.63934 12.1936C7.41371 11.2121 6.95407 10.0656 6.89558 9.7963C6.84544 9.55309 6.37747 9.37937 4.56406 8.92769C3.65317 8.70185 3.51111 8.62366 3.85373 8.51943C4.27993 8.38913 6.32732 7.69425 6.56131 7.69425C6.78694 7.69425 6.97915 7.52052 7.046 7.25994L7.69783 4.61937C7.81483 4.15901 7.81483 4.159 8.14074 5.95702C8.5168 7.98089 8.47501 7.89401 9.07669 8.0243C9.8288 8.18934 11.5336 8.75395 11.4584 8.82344Z" fill="#E76B39"/>
<path d="M11.4584 8.82344C11.3915 8.88424 9.56138 9.34461 9.20204 9.34461C8.76749 9.34461 8.66721 9.56176 8.17416 11.603C7.84825 12.9493 7.82319 12.9754 7.63934 12.1936C7.41371 11.2121 6.95407 10.0656 6.89558 9.7963C6.84544 9.55309 6.37747 9.37937 4.56406 8.92769C3.65317 8.70185 3.51111 8.62366 3.85373 8.51943C4.27993 8.38913 6.32732 7.69425 6.56131 7.69425C6.78694 7.69425 6.97915 7.52052 7.046 7.25994L7.69783 4.61937C7.81483 4.15901 7.81483 4.159 8.14074 5.95702C8.5168 7.98089 8.47501 7.89401 9.07669 8.0243C9.8288 8.18934 11.5336 8.75395 11.4584 8.82344Z" fill="#E76B39"/>
</svg>
