<svg width="167" height="46" viewBox="0 0 167 46" fill="none" xmlns="http://www.w3.org/2000/svg">
<path d="M25.1021 36.838V36.5019H27.0252C27.4301 36.5019 27.7675 36.4571 28.0374 36.3675C28.3298 36.2554 28.5435 36.0538 28.6784 35.7625C28.8134 35.4488 28.8809 35.0118 28.8809 34.4517V15.0919C28.8809 14.5541 28.8134 14.1508 28.6784 13.8819C28.566 13.613 28.386 13.4337 28.1386 13.3441C27.9137 13.2321 27.6437 13.176 27.3288 13.176H25.1021V12.8399H34.6165L45.4469 30.3511V15.0919C45.4469 14.5989 45.3794 14.218 45.2444 13.9491C45.132 13.6802 44.9633 13.4897 44.7383 13.3777C44.5134 13.2433 44.2435 13.176 43.9286 13.176H41.4319V12.8399H49.698V13.176H47.3363C46.9989 13.176 46.7065 13.2433 46.459 13.3777C46.2341 13.5122 46.0654 13.725 45.953 14.0163C45.8405 14.3076 45.7843 14.7109 45.7843 15.2263V36.838H43.0176L29.2182 14.5205V34.4517C29.2182 35.0118 29.2632 35.4488 29.3532 35.7625C29.4657 36.0538 29.6344 36.2554 29.8593 36.3675C30.0842 36.4571 30.3766 36.5019 30.7365 36.5019H33.2332V36.838H25.1021Z" fill="#465C50"/>
<path d="M50.6372 36.838V36.5019H52.0205C52.3354 36.5019 52.6053 36.4459 52.8302 36.3339C53.0552 36.1994 53.2239 35.9978 53.3363 35.7289C53.4713 35.46 53.5388 35.1239 53.5388 34.7205V15.1255C53.5388 14.5429 53.4713 14.1171 53.3363 13.8483C53.2014 13.5794 53.0102 13.4001 52.7628 13.3105C52.5378 13.2209 52.2792 13.176 51.9868 13.176H50.6372V12.8399H69.295L69.5312 19.1588H69.1938L69.0926 18.0832C68.9801 16.8732 68.7327 15.9097 68.3503 15.1927C67.9679 14.4533 67.3944 13.9379 66.6296 13.6466C65.8874 13.3329 64.9089 13.176 63.6943 13.176H59.848V24.1332H67.5743V24.4693H59.848V36.5019H64.7402C65.9773 36.5019 66.967 36.3451 67.7093 36.0314C68.474 35.7177 69.0476 35.2023 69.43 34.4853C69.8124 33.7682 70.0485 32.7935 70.1385 31.5611L70.2397 30.5192H70.5771L70.3409 36.838H50.6372Z" fill="#465C50"/>
<path d="M71.5822 36.838V36.5019H72.7968C73.2017 36.5019 73.5616 36.4459 73.8765 36.3339C74.1914 36.1994 74.4725 35.9641 74.7199 35.628C74.9898 35.2695 75.226 34.7766 75.4285 34.1492L81.8389 12.8399H86.6974L93.7152 34.3172C93.9176 34.8326 94.1313 35.2583 94.3562 35.5944C94.5812 35.9081 94.8398 36.1434 95.1322 36.3002C95.4471 36.4347 95.7845 36.5019 96.1444 36.5019H96.3131V36.838H84.7743V36.5019H86.1913C86.6861 36.5019 87.0235 36.4011 87.2035 36.1994C87.3834 35.9978 87.4734 35.7289 87.4734 35.3928C87.4734 35.2359 87.4509 35.0791 87.4059 34.9222C87.3834 34.7429 87.3497 34.5525 87.3047 34.3508C87.2597 34.1492 87.2147 33.9587 87.1697 33.7794L85.4828 28.032H77.6215L76.0695 33.1744C75.9795 33.4881 75.9008 33.7794 75.8333 34.0483C75.7659 34.3172 75.7096 34.5637 75.6646 34.7878C75.6197 34.9894 75.5972 35.1911 75.5972 35.3928C75.5972 35.7737 75.6871 36.0538 75.8671 36.233C76.0695 36.4123 76.3957 36.5019 76.8455 36.5019H79.106V36.838H71.5822ZM77.7227 27.6959H85.3816L82.9861 19.3604C82.8736 18.9571 82.7387 18.4753 82.5812 17.9152C82.4238 17.355 82.2663 16.7724 82.1088 16.1674C81.9514 15.5624 81.7939 14.9798 81.6365 14.4196C81.5465 14.823 81.4453 15.2263 81.3328 15.6296C81.2204 16.033 81.0967 16.4475 80.9617 16.8732C80.8492 17.2766 80.7255 17.6799 80.5906 18.0832C80.4781 18.4865 80.3544 18.8899 80.2194 19.2932L77.7227 27.6959Z" fill="#465C50"/>
<path d="M99.099 36.838V36.5019H100.111C100.561 36.5019 100.921 36.4459 101.191 36.3339C101.483 36.2218 101.697 36.009 101.832 35.6953C101.989 35.3816 102.068 34.9334 102.068 34.3508V13.176H100.381C99.1215 13.176 98.1093 13.3329 97.3445 13.6466C96.5798 13.9379 96.0174 14.4421 95.6576 15.1591C95.2977 15.8761 95.0727 16.8508 94.9828 18.0832L94.8816 19.6629H94.5442L94.7803 12.8399H115.766L116.002 19.6629H115.665L115.53 18.0832C115.44 16.8508 115.215 15.8761 114.855 15.1591C114.495 14.4421 113.933 13.9379 113.168 13.6466C112.404 13.3329 111.391 13.176 110.132 13.176H108.479V34.418C108.479 34.9782 108.557 35.4152 108.715 35.7289C108.872 36.0426 109.097 36.2554 109.389 36.3675C109.682 36.4571 110.031 36.5019 110.435 36.5019H111.448V36.838H99.099Z" fill="#465C50"/>
<path d="M116.732 36.838V36.5019H118.183C118.43 36.5019 118.666 36.4459 118.891 36.3339C119.116 36.2218 119.296 36.0314 119.431 35.7625C119.566 35.4936 119.634 35.1351 119.634 34.6869V15.0583C119.634 14.5877 119.555 14.218 119.397 13.9491C119.262 13.6578 119.071 13.4561 118.824 13.3441C118.576 13.2321 118.306 13.176 118.014 13.176H116.732V12.8399H128.912V13.176H127.562C127.18 13.176 126.876 13.2321 126.651 13.3441C126.449 13.4561 126.291 13.6466 126.179 13.9155C126.067 14.162 126.01 14.5093 126.01 14.9574V36.5019H129.755C131.262 36.5019 132.466 36.3115 133.365 35.9305C134.288 35.5496 134.974 34.9222 135.424 34.0483C135.873 33.1744 136.155 31.9869 136.267 30.4856L136.335 29.2084H136.672L136.402 36.838H116.732Z" fill="#465C50"/>
<path d="M140.828 36.838V36.5019H141.941C142.436 36.5019 142.841 36.4459 143.156 36.3339C143.471 36.1994 143.707 35.9753 143.864 35.6616C144.044 35.3255 144.134 34.855 144.134 34.25V28.5026L137.791 14.9574C137.611 14.5093 137.409 14.162 137.184 13.9155C136.981 13.6466 136.756 13.4561 136.509 13.3441C136.284 13.2321 136.025 13.176 135.733 13.176H135.632V12.8399H147.441V13.176H147.036C146.158 13.176 145.517 13.2769 145.113 13.4785C144.708 13.6802 144.505 14.0163 144.505 14.4869C144.505 14.7558 144.55 15.047 144.64 15.3607C144.753 15.6744 144.91 16.0554 145.113 16.5035L148.385 23.7634C148.588 24.122 148.745 24.4469 148.858 24.7381C148.993 25.007 149.116 25.2871 149.229 25.5784C149.364 25.8697 149.521 26.2058 149.701 26.5867C149.881 26.9677 150.106 27.427 150.376 27.9648C150.488 27.6511 150.612 27.3262 150.747 26.9901C150.882 26.6316 151.028 26.2842 151.186 25.9481L155.032 16.638C155.257 16.1002 155.414 15.6632 155.504 15.3271C155.617 14.991 155.673 14.6997 155.673 14.4533C155.673 13.9827 155.504 13.6578 155.167 13.4785C154.829 13.2769 154.301 13.176 153.581 13.176H152.063V12.8399H158.979V13.176H158.608C158.226 13.176 157.877 13.2433 157.562 13.3777C157.247 13.4897 156.955 13.7026 156.685 14.0163C156.438 14.33 156.19 14.7782 155.943 15.3607L150.545 28.3345V34.2836C150.545 34.8886 150.623 35.3479 150.781 35.6616C150.938 35.9753 151.152 36.1994 151.422 36.3339C151.692 36.4459 152.007 36.5019 152.367 36.5019H153.885V36.838H140.828Z" fill="#465C50"/>
<path fill-rule="evenodd" clip-rule="evenodd" d="M24.6201 37.3182V36.0218H27.0252C27.3918 36.0218 27.6703 35.9814 27.8742 35.9155C28.0388 35.85 28.1558 35.7416 28.2381 35.5672C28.3346 35.3392 28.3989 34.9785 28.3989 34.4517V15.0919C28.3989 14.5786 28.332 14.2652 28.2474 14.0966L28.2325 14.067C28.1655 13.9069 28.0799 13.8337 27.9739 13.7954L27.9479 13.7859L27.9231 13.7736C27.7798 13.7022 27.5874 13.6562 27.3289 13.6562H24.6201V12.3598H34.8858L44.9649 28.6565V15.0919C44.9649 14.6313 44.9 14.3365 44.8134 14.1638L44.7985 14.1342C44.7229 13.9534 44.6278 13.8595 44.5228 13.8072L44.5063 13.7989L44.4904 13.7894C44.3542 13.708 44.1738 13.6562 43.9286 13.6562H40.9499V12.3598H69.7595L70.0315 19.6389H68.7549L68.6128 18.128C68.5035 16.9529 68.2661 16.0581 67.9247 15.418L67.9219 15.4126C67.5926 14.7759 67.1091 14.3433 66.4575 14.0951L66.4413 14.0889C65.7809 13.8098 64.8739 13.6562 63.6944 13.6562H60.3301V23.653H68.0564V24.9494H60.3301V36.0218H64.7403C65.9437 36.0218 66.8615 35.8681 67.5211 35.5893L67.5258 35.5874C68.1884 35.3156 68.6755 34.8767 69.0044 34.26C69.3433 33.6245 69.5704 32.7235 69.6578 31.5263L69.6587 31.5149L69.8022 30.0391H71.0774L70.8054 37.3182H50.1552V36.0218H52.0205C52.269 36.0218 52.4564 35.9793 52.5977 35.9126C52.7174 35.8368 52.817 35.7222 52.8915 35.5442L52.9043 35.5136C52.9963 35.3302 53.0568 35.0736 53.0568 34.7206V15.1255C53.0568 14.5601 52.9881 14.228 52.9053 14.063C52.8168 13.8867 52.7126 13.8032 52.5981 13.7617L52.5837 13.7565C52.4262 13.6938 52.2303 13.6562 51.9868 13.6562H47.3363C47.0688 13.6562 46.8616 13.7082 46.6991 13.7943C46.5864 13.8642 46.4826 13.9822 46.4029 14.1887C46.321 14.4007 46.2663 14.7366 46.2663 15.2263V37.3182H42.7485L29.7003 16.2155V34.4517C29.7003 34.9794 29.7424 35.3585 29.8109 35.6097C29.885 35.7925 29.9738 35.8822 30.0587 35.9295C30.2062 35.984 30.4256 36.0218 30.7366 36.0218H33.7153V37.3182H24.6201ZM29.8406 36.3579C29.625 36.2441 29.4626 36.0456 29.3533 35.7625C29.3244 35.6617 29.3001 35.5482 29.2805 35.422C29.239 35.1553 29.2183 34.8319 29.2183 34.4517V14.5205L43.0177 36.838H45.7843V15.2263C45.7843 15.1806 45.7848 15.1358 45.7856 15.0919C45.7916 14.7937 45.818 14.5361 45.8647 14.319C45.8888 14.2074 45.9182 14.1065 45.953 14.0163C46.0655 13.725 46.2342 13.5122 46.4591 13.3777C46.4974 13.3569 46.5368 13.3377 46.5773 13.3201C46.7982 13.2241 47.0512 13.1761 47.3363 13.1761H49.6981V12.8399H41.4319V13.1761H43.9286C44.1948 13.1761 44.4288 13.2241 44.6307 13.3201C44.6677 13.3377 44.7036 13.3569 44.7384 13.3777C44.9633 13.4898 45.132 13.6802 45.2445 13.9491C45.2979 14.0556 45.3408 14.1797 45.3731 14.3213C45.4223 14.5373 45.4469 14.7941 45.4469 15.0919V30.3512L34.6166 12.8399H25.1021V13.1761H27.3289C27.6204 13.1761 27.8734 13.2241 28.0878 13.3201C28.105 13.3278 28.122 13.3358 28.1386 13.3441C28.3861 13.4337 28.566 13.613 28.6785 13.8819C28.6994 13.9235 28.7187 13.9684 28.7363 14.0165C28.7879 14.157 28.8257 14.325 28.8497 14.5205C28.858 14.5885 28.8647 14.6598 28.8697 14.7344C28.8729 14.783 28.8755 14.8331 28.8773 14.8846C28.8797 14.9513 28.8809 15.0204 28.8809 15.0919V34.4517C28.8809 34.8244 28.851 35.1427 28.7913 35.4063C28.7612 35.5388 28.7236 35.6575 28.6785 35.7625C28.5473 36.0456 28.3417 36.2441 28.0618 36.3579C28.0537 36.3611 28.0456 36.3643 28.0374 36.3675C27.7675 36.4571 27.4301 36.5019 27.0252 36.5019H25.1021V36.838H33.2333V36.5019H30.7366C30.3767 36.5019 30.0843 36.4571 29.8594 36.3675C29.8531 36.3643 29.8468 36.3611 29.8406 36.3579ZM52.8303 36.3339C52.8136 36.3422 52.7967 36.3502 52.7795 36.3579C52.5651 36.4539 52.3121 36.5019 52.0205 36.5019H50.6372V36.838H70.341L70.5772 30.5192H70.2398L70.1386 31.5611C70.1113 31.934 70.0707 32.2833 70.0167 32.609C69.8923 33.3598 69.6967 33.9852 69.43 34.4853C69.0477 35.2023 68.4741 35.7177 67.7093 36.0314C67.3777 36.1715 66.9968 36.2803 66.5665 36.3579C66.0335 36.4539 65.4247 36.5019 64.7403 36.5019H59.8481V24.4693H67.5744V24.1332H59.8481V13.1761H63.6944C64.3664 13.1761 64.9661 13.2241 65.4935 13.3201C65.9194 13.3976 66.2981 13.5065 66.6297 13.6466C67.3944 13.9379 67.968 14.4533 68.3504 15.1927C68.6314 15.7196 68.8395 16.3795 68.9747 17.1726C69.0235 17.4588 69.0628 17.7623 69.0926 18.0832L69.1939 19.1588H69.5313L69.4897 18.0466L69.2951 12.8399H50.6372V13.1761H51.9868C52.2792 13.1761 52.5379 13.2209 52.7628 13.3105C52.7714 13.3136 52.7798 13.3168 52.7882 13.3201C53.0234 13.4126 53.2061 13.5887 53.3364 13.8483C53.4713 14.1172 53.5388 14.5429 53.5388 15.1255V34.7206C53.5388 35.1239 53.4713 35.46 53.3364 35.7289C53.2239 35.9978 53.0552 36.1994 52.8303 36.3339ZM71.1002 37.3182V36.0218H72.7968C73.1509 36.0218 73.4496 35.9737 73.6999 35.8868C73.9152 35.7917 74.1278 35.6206 74.3313 35.3441L74.3344 35.3399C74.5603 35.0398 74.7756 34.6026 74.9682 34.0066L81.4803 12.3598H87.0474L94.1692 34.1552C94.3603 34.6397 94.556 35.0259 94.753 35.3216C94.9355 35.5746 95.1332 35.7513 95.3423 35.8674C95.5885 35.9694 95.8544 36.0218 96.1445 36.0218H96.7951V37.3182H84.2923V36.0218H86.1914C86.6536 36.0218 86.8069 35.9212 86.8433 35.8804C86.9269 35.7868 86.9915 35.6413 86.9915 35.3928C86.9915 35.2823 86.9757 35.1698 86.9425 35.0541L86.9323 35.0185L86.9277 34.9818C86.9073 34.8194 86.8764 34.644 86.8342 34.455C86.7908 34.2604 86.7476 34.0771 86.7045 33.905L85.1216 28.5122H77.98L76.533 33.3064C76.5327 33.3074 76.5324 33.3085 76.5321 33.3095C76.4437 33.6177 76.3667 33.9028 76.301 34.1648C76.235 34.4278 76.1805 34.6667 76.1373 34.8819L76.1353 34.892C76.0978 35.0603 76.0792 35.227 76.0792 35.3928C76.0792 35.691 76.1465 35.8249 76.1985 35.8834C76.2772 35.9457 76.4605 36.0218 76.8456 36.0218H79.5881V37.3182H71.1002ZM75.8671 36.233C75.6872 36.0538 75.5972 35.7737 75.5972 35.3928C75.5972 35.2601 75.607 35.1274 75.6264 34.9947C75.6366 34.9257 75.6493 34.8567 75.6647 34.7878C75.6975 34.6244 75.7363 34.4492 75.781 34.262C75.7816 34.2597 75.7821 34.2573 75.7827 34.2549C75.7988 34.1876 75.8157 34.1187 75.8334 34.0483C75.9009 33.7794 75.9796 33.4882 76.0696 33.1745L77.6216 28.032H85.4828L87.1698 33.7794C87.2148 33.9587 87.2598 34.1492 87.3048 34.3508C87.3497 34.5525 87.3835 34.743 87.406 34.9222C87.451 35.0791 87.4734 35.2359 87.4734 35.3928C87.4734 35.7289 87.3835 35.9978 87.2035 36.1994C87.1478 36.2619 87.0769 36.3147 86.9909 36.3579C86.7993 36.4539 86.5328 36.5019 86.1914 36.5019H84.7743V36.838H96.3132V36.5019H96.1445C95.8403 36.5019 95.5522 36.4539 95.2802 36.3579C95.2303 36.3403 95.181 36.3211 95.1323 36.3003C94.8399 36.1434 94.5812 35.9081 94.3563 35.5944C94.1313 35.2583 93.9177 34.8326 93.7152 34.3172L86.6974 12.8399H81.839L75.4285 34.1492C75.366 34.3429 75.3003 34.5238 75.2314 34.6918C75.2301 34.6948 75.2289 34.6978 75.2277 34.7007C75.2055 34.7547 75.1829 34.8074 75.16 34.8588C75.0249 35.1614 74.8782 35.4178 74.72 35.628C74.4726 35.9641 74.1914 36.1994 73.8765 36.3339C73.8531 36.3422 73.8295 36.3502 73.8057 36.3579C73.508 36.4539 73.1717 36.5019 72.7968 36.5019H71.5822V36.838H79.1061V36.5019H76.8456C76.5163 36.5019 76.2533 36.4539 76.0566 36.3579C75.9846 36.3227 75.9214 36.2811 75.8671 36.233ZM85.3816 27.6959L82.9861 19.3604C82.8737 18.9571 82.7387 18.4754 82.5813 17.9152C82.4238 17.355 82.2664 16.7724 82.1089 16.1674C82.0393 15.8999 81.9697 15.6368 81.9 15.378C81.8491 15.1888 81.7982 15.0019 81.7473 14.8173C81.7104 14.6836 81.6735 14.551 81.6366 14.4197C81.5652 14.7395 81.4868 15.0594 81.4013 15.3792C81.379 15.4627 81.3562 15.5462 81.3329 15.6296C81.2204 16.033 81.0967 16.4475 80.9618 16.8732C80.8493 17.2766 80.7256 17.6799 80.5906 18.0832C80.4782 18.4866 80.3545 18.8899 80.2195 19.2932L77.7228 27.6959H85.3816ZM78.3681 27.2157H84.7423L82.5217 19.4889C82.4094 19.086 82.2745 18.6046 82.1171 18.0446C81.9592 17.4828 81.8014 16.8989 81.6436 16.2929C81.5739 16.5284 81.5007 16.7675 81.4239 17.0099C81.3109 17.4146 81.1868 17.8192 81.0517 18.2235C80.9387 18.6283 80.8145 19.0329 80.6794 19.4372L78.3681 27.2157ZM98.617 37.3182V36.0218H100.111C100.528 36.0218 100.817 35.9688 101.005 35.8906L101.018 35.8855C101.177 35.8246 101.3 35.713 101.389 35.5061L101.4 35.4802C101.509 35.2633 101.586 34.9022 101.586 34.3508V13.6562H100.381C99.1548 13.6562 98.2124 13.8099 97.5281 14.0906L97.5168 14.0952C96.8625 14.3445 96.3936 14.7663 96.0887 15.3738C95.7682 16.0124 95.5514 16.9169 95.4637 18.1161C95.4636 18.1167 95.4637 18.1154 95.4637 18.1161L95.3338 20.1431H94.0453L94.3147 12.3598H116.232L116.25 12.884V12.3598H129.394V13.6562H127.562C127.228 13.6562 127.01 13.7052 126.877 13.7687C126.794 13.8173 126.703 13.9109 126.624 14.1002L126.618 14.1143C126.547 14.2705 126.492 14.5386 126.492 14.9574V36.0218H129.755C131.229 36.0218 132.36 35.8344 133.177 35.4886L133.181 35.487C133.999 35.1491 134.598 34.6004 134.995 33.8292C135.403 33.0355 135.676 31.9205 135.786 30.4551C135.786 30.4534 135.786 30.4516 135.786 30.4499L135.877 28.7282H137.171L136.867 37.3182H116.25V36.0218H118.183C118.354 36.0218 118.517 35.9837 118.676 35.9044C118.79 35.8476 118.902 35.7428 119 35.5478C119.089 35.3702 119.152 35.0941 119.152 34.6869V15.0583C119.152 14.6325 119.079 14.3582 118.981 14.191L118.969 14.1712L118.96 14.1503C118.864 13.9432 118.748 13.8371 118.624 13.7812C118.444 13.6997 118.243 13.6562 118.014 13.6562H116.277L116.501 20.1431H115.222L115.049 18.1181C114.962 16.9179 114.745 16.0127 114.424 15.3738C114.119 14.7663 113.65 14.3443 112.996 14.0951L112.985 14.0907C112.3 13.81 111.358 13.6562 110.132 13.6562H108.961V34.4181C108.961 34.9434 109.036 35.2953 109.146 35.5141C109.253 35.7286 109.388 35.8486 109.548 35.9137C109.78 35.9824 110.073 36.0218 110.435 36.0218H111.93V37.3182H98.617ZM109.365 36.3579C109.085 36.2435 108.868 36.0338 108.715 35.7289C108.557 35.4152 108.479 34.9782 108.479 34.4181V13.1761H110.132C110.829 13.1761 111.45 13.2241 111.995 13.3201C112.436 13.3976 112.827 13.5065 113.168 13.6466C113.933 13.9379 114.495 14.4421 114.855 15.1591C115.123 15.6926 115.316 16.3688 115.434 17.1876C115.475 17.4693 115.507 17.7678 115.53 18.0832L115.665 19.6629H116.002L115.766 12.8399H94.7804L94.5442 19.6629H94.8816L94.9828 18.0832C95.0135 17.6637 95.0597 17.274 95.1216 16.9142C95.2416 16.217 95.4202 15.632 95.6576 15.1591C96.0175 14.4421 96.5798 13.9379 97.3446 13.6466C97.6862 13.5065 98.0772 13.3976 98.5176 13.3201C99.063 13.2241 99.6842 13.1761 100.381 13.1761H102.068V34.3508C102.068 34.9334 101.989 35.3816 101.832 35.6953C101.697 36.009 101.483 36.2218 101.191 36.3339C101.171 36.3422 101.15 36.3502 101.129 36.3579C100.867 36.4539 100.528 36.5019 100.111 36.5019H99.099V36.838H111.448V36.5019H110.435C110.031 36.5019 109.682 36.4571 109.39 36.3675C109.381 36.3644 109.373 36.3612 109.365 36.3579ZM136.094 31.906C135.944 32.757 135.721 33.4711 135.424 34.0483C134.974 34.9222 134.288 35.5496 133.366 35.9305C132.918 36.1202 132.394 36.2626 131.796 36.3579C131.192 36.4539 130.512 36.5019 129.755 36.5019H126.01V14.9574C126.01 14.5093 126.067 14.162 126.179 13.9155C126.291 13.6466 126.449 13.4561 126.651 13.3441C126.668 13.3358 126.685 13.3278 126.703 13.3201C126.922 13.2241 127.208 13.1761 127.562 13.1761H128.912V12.8399H116.732V13.1761H118.014C118.285 13.1761 118.536 13.2241 118.768 13.3201C118.787 13.3278 118.806 13.3358 118.824 13.3441C119.071 13.4561 119.262 13.6578 119.397 13.9491C119.555 14.218 119.634 14.5877 119.634 15.0583V34.6869C119.634 35.1351 119.566 35.4936 119.431 35.7625C119.296 36.0314 119.116 36.2218 118.891 36.3339C118.875 36.3422 118.858 36.3502 118.841 36.3579C118.631 36.4539 118.412 36.5019 118.183 36.5019H116.732V36.838H136.402L136.672 29.2084H136.335L136.267 30.4856C136.229 30.9952 136.171 31.4687 136.094 31.906ZM140.346 37.3182V36.0218H141.941C142.396 36.0218 142.736 35.9707 142.979 35.8867C143.179 35.798 143.327 35.6575 143.433 35.4469L143.439 35.4356C143.566 35.1983 143.652 34.8179 143.652 34.25V28.609L137.343 15.136C137.176 14.7193 137 14.4281 136.827 14.2385L136.812 14.2217L136.798 14.2036C136.633 13.9838 136.468 13.8528 136.31 13.7812L136.293 13.7739C136.145 13.7002 135.963 13.6562 135.733 13.6562H135.15V12.3598H147.923V13.6562H147.036C146.176 13.6562 145.629 13.7583 145.328 13.908C145.195 13.9743 145.118 14.0504 145.07 14.1289C145.022 14.2086 144.987 14.3211 144.987 14.4869C144.987 14.699 145.022 14.9406 145.099 15.2141C145.206 15.5089 145.356 15.8724 145.552 16.3065L148.816 23.5472C149.017 23.9043 149.179 24.2369 149.299 24.544C149.435 24.8163 149.559 25.0988 149.673 25.3912C149.806 25.6779 149.961 26.0083 150.137 26.3823C150.193 26.5007 150.254 26.627 150.319 26.7612C150.45 26.4162 150.592 26.0809 150.744 25.7552L154.586 16.4552C154.808 15.926 154.957 15.5096 155.039 15.2034L155.046 15.175C155.149 14.8684 155.191 14.6309 155.191 14.4533C155.191 14.1105 155.081 13.977 154.94 13.9022L154.919 13.8908C154.696 13.7575 154.275 13.6562 153.581 13.6562H151.581V12.3598H159.461V13.6562H158.608C158.284 13.6562 158.001 13.713 157.752 13.8191L157.725 13.8308C157.508 13.9079 157.284 14.0604 157.058 14.321C156.85 14.5874 156.624 14.9892 156.388 15.5459C156.387 15.5466 156.388 15.5453 156.388 15.5459L151.027 28.4301V34.2836C151.027 34.8608 151.104 35.2319 151.212 35.4469C151.327 35.6768 151.467 35.8156 151.623 35.8972C151.82 35.9759 152.064 36.0218 152.367 36.0218H154.367V37.3182H140.346ZM151.422 36.3339C151.152 36.1994 150.938 35.9754 150.781 35.6617C150.623 35.348 150.545 34.8886 150.545 34.2836V28.3345L155.356 16.7723L155.943 15.3608C155.99 15.2497 156.037 15.1436 156.084 15.0423C156.285 14.6122 156.485 14.2702 156.685 14.0163C156.955 13.7026 157.247 13.4898 157.562 13.3777C157.611 13.3569 157.661 13.3377 157.711 13.3201C157.986 13.2241 158.285 13.1761 158.608 13.1761H158.979V12.8399H152.063V13.1761H153.581C154.078 13.1761 154.483 13.2241 154.798 13.3201C154.939 13.3632 155.062 13.4161 155.167 13.4786C155.504 13.6578 155.673 13.9827 155.673 14.4533C155.673 14.5859 155.657 14.7314 155.624 14.8899C155.604 14.9864 155.579 15.0877 155.547 15.1938C155.546 15.1948 155.546 15.1958 155.546 15.1968C155.533 15.2395 155.519 15.2829 155.504 15.3271C155.414 15.6633 155.257 16.1002 155.032 16.638L151.186 25.9481C151.028 26.2843 150.882 26.6316 150.747 26.9901C150.699 27.1107 150.652 27.2298 150.606 27.3475C150.525 27.5579 150.448 27.7636 150.376 27.9648C150.339 27.8908 150.303 27.8184 150.267 27.7474C150.202 27.6173 150.14 27.4922 150.081 27.372C149.938 27.081 149.811 26.8193 149.701 26.5867C149.521 26.2058 149.364 25.8697 149.229 25.5784C149.116 25.2871 148.993 25.007 148.858 24.7382C148.745 24.4469 148.588 24.122 148.385 23.7634L145.113 16.5035C144.91 16.0554 144.753 15.6745 144.64 15.3608C144.55 15.0471 144.505 14.7558 144.505 14.4869C144.505 14.0163 144.708 13.6802 145.113 13.4786C145.238 13.4161 145.386 13.3632 145.557 13.3201C145.938 13.2241 146.43 13.1761 147.036 13.1761H147.441V12.8399H135.632V13.1761H135.733C136.004 13.1761 136.246 13.2241 136.458 13.3201C136.476 13.3278 136.492 13.3358 136.509 13.3441C136.756 13.4561 136.981 13.6466 137.184 13.9155C137.409 14.162 137.611 14.5093 137.791 14.9574L144.134 28.5026V34.25C144.134 34.855 144.044 35.3255 143.864 35.6617C143.707 35.9754 143.471 36.1994 143.156 36.3339C143.132 36.3422 143.108 36.3502 143.084 36.3579C142.78 36.4539 142.399 36.5019 141.941 36.5019H140.828V36.838H153.885V36.5019H152.367C152.033 36.5019 151.739 36.4539 151.483 36.3579C151.462 36.3502 151.442 36.3422 151.422 36.3339Z" fill="#2F3E35"/>
<path d="M17.5956 12.187C16.8862 11.9694 13.2577 10.7727 12.9902 10.6639C12.8623 10.6155 12.7692 10.3738 12.7227 9.96277C12.3389 6.89237 11.7342 3.73731 11.4667 3.38676C11.269 3.12082 10.5945 3.20544 10.4084 3.50764C10.2223 3.80984 9.36171 6.86817 8.85 9.0924L8.51275 10.543C1.90703 12.7188 1.54648 12.6705 4.53534 13.6255L7.17532 14.4716C8.67556 14.9552 8.71044 14.9672 8.79185 15.354C8.90815 15.9101 9.66408 18.6179 9.95483 19.9113C10.5712 22.6916 11.8272 20.9751 12.9321 15.8013L13.1879 14.6167C13.3275 14.5925 14.2113 14.5079 18.0259 13.6497C18.8981 13.4442 18.6423 12.5013 17.5956 12.187ZM15.9442 12.7793C15.8511 12.8639 13.3042 13.5046 12.8041 13.5046C12.1994 13.5046 12.0598 13.8068 11.3737 16.6475C10.9201 18.5212 10.8852 18.5574 10.6294 17.4695C10.3154 16.1035 9.6757 14.5079 9.59429 14.1332C9.52452 13.7947 8.87326 13.553 6.34959 12.9244C5.08195 12.6101 4.88424 12.5013 5.36106 12.3562C5.95418 12.1749 8.80347 11.2078 9.1291 11.2078C9.44311 11.2078 9.7106 10.9661 9.80364 10.6034L10.7108 6.92863C10.8736 6.28795 10.8736 6.28794 11.3271 8.79019C11.8505 11.6067 11.7923 11.4858 12.6297 11.6672C13.6764 11.8968 16.0488 12.6826 15.9442 12.7793Z" fill="#E76B39"/>
<path d="M15.9442 12.7793C15.8511 12.8639 13.3042 13.5046 12.8041 13.5046C12.1994 13.5046 12.0598 13.8068 11.3737 16.6475C10.9201 18.5212 10.8852 18.5574 10.6294 17.4695C10.3154 16.1035 9.6757 14.5079 9.59429 14.1332C9.52452 13.7947 8.87326 13.553 6.34959 12.9244C5.08195 12.6101 4.88424 12.5013 5.36106 12.3562C5.95418 12.1749 8.80347 11.2078 9.1291 11.2078C9.44311 11.2078 9.7106 10.9661 9.80364 10.6034L10.7108 6.92863C10.8736 6.28795 10.8736 6.28794 11.3271 8.79019C11.8505 11.6067 11.7923 11.4858 12.6297 11.6672C13.6764 11.8968 16.0488 12.6826 15.9442 12.7793Z" fill="#E76B39"/>
</svg>
