<svg width="167" height="45" viewBox="0 0 167 45" fill="none" xmlns="http://www.w3.org/2000/svg">
<path d="M25.1021 36.338V36.0019H27.0253C27.4301 36.0019 27.7675 35.9571 28.0374 35.8675C28.3298 35.7555 28.5435 35.5538 28.6785 35.2625C28.8134 34.9488 28.8809 34.5119 28.8809 33.9517V14.5919C28.8809 14.0541 28.8134 13.6508 28.6785 13.3819C28.566 13.113 28.3861 12.9338 28.1387 12.8441C27.9137 12.7321 27.6438 12.6761 27.3289 12.6761H25.1021V12.34H34.6166L45.4469 29.8512V14.5919C45.4469 14.0989 45.3794 13.718 45.2445 13.4491C45.132 13.1802 44.9633 12.9898 44.7384 12.8777C44.5135 12.7433 44.2436 12.6761 43.9287 12.6761H41.4319V12.34H49.6981V12.6761H47.3363C46.9989 12.6761 46.7065 12.7433 46.4591 12.8777C46.2342 13.0122 46.0655 13.225 45.953 13.5163C45.8405 13.8076 45.7843 14.211 45.7843 14.7263V36.338H43.0177L29.2183 14.0205V33.9517C29.2183 34.5119 29.2633 34.9488 29.3533 35.2625C29.4657 35.5538 29.6344 35.7555 29.8594 35.8675C30.0843 35.9571 30.3767 36.0019 30.7366 36.0019H33.2333V36.338H25.1021Z" fill="#F1F5F3"/>
<path d="M50.6372 36.338V36.0019H52.0206C52.3355 36.0019 52.6054 35.9459 52.8303 35.8339C53.0552 35.6994 53.2239 35.4978 53.3364 35.2289C53.4713 34.96 53.5388 34.6239 53.5388 34.2206V14.6255C53.5388 14.0429 53.4713 13.6172 53.3364 13.3483C53.2014 13.0794 53.0102 12.9001 52.7628 12.8105C52.5379 12.7209 52.2792 12.6761 51.9868 12.6761H50.6372V12.34H69.2951L69.5313 18.6588H69.1939L69.0926 17.5832C68.9802 16.3733 68.7328 15.4097 68.3504 14.6927C67.968 13.9533 67.3944 13.4379 66.6297 13.1466C65.8874 12.8329 64.909 12.6761 63.6944 12.6761H59.8481V23.6332H67.5744V23.9693H59.8481V36.0019H64.7403C65.9774 36.0019 66.9671 35.8451 67.7093 35.5314C68.4741 35.2177 69.0477 34.7023 69.43 33.9853C69.8124 33.2683 70.0486 32.2936 70.1386 31.0612L70.2398 30.0192H70.5772L70.341 36.338H50.6372Z" fill="#F1F5F3"/>
<path d="M71.5822 36.338V36.0019H72.7969C73.2017 36.0019 73.5616 35.9459 73.8765 35.8339C74.1914 35.6994 74.4726 35.4642 74.72 35.1281C74.9899 34.7695 75.2261 34.2766 75.4285 33.6492L81.839 12.34H86.6975L93.7152 33.8172C93.9177 34.3326 94.1314 34.7583 94.3563 35.0944C94.5812 35.4081 94.8399 35.6434 95.1323 35.8003C95.4472 35.9347 95.7846 36.0019 96.1445 36.0019H96.3132V36.338H84.7743V36.0019H86.1914C86.6862 36.0019 87.0236 35.9011 87.2035 35.6994C87.3835 35.4978 87.4735 35.2289 87.4735 34.8928C87.4735 34.7359 87.451 34.5791 87.406 34.4222C87.3835 34.243 87.3498 34.0525 87.3048 33.8509C87.2598 33.6492 87.2148 33.4587 87.1698 33.2795L85.4828 27.532H77.6216L76.0696 32.6745C75.9796 32.9882 75.9009 33.2795 75.8334 33.5484C75.7659 33.8172 75.7097 34.0637 75.6647 34.2878C75.6197 34.4895 75.5972 34.6911 75.5972 34.8928C75.5972 35.2737 75.6872 35.5538 75.8671 35.7331C76.0696 35.9123 76.3957 36.0019 76.8456 36.0019H79.1061V36.338H71.5822ZM77.7228 27.1959H85.3816L82.9861 18.8605C82.8737 18.4571 82.7387 17.9754 82.5813 17.4152C82.4238 16.855 82.2664 16.2724 82.1089 15.6674C81.9515 15.0624 81.794 14.4799 81.6366 13.9197C81.5466 14.323 81.4454 14.7263 81.3329 15.1297C81.2204 15.533 81.0967 15.9475 80.9618 16.3733C80.8493 16.7766 80.7256 17.1799 80.5906 17.5832C80.4782 17.9866 80.3545 18.3899 80.2195 18.7932L77.7228 27.1959Z" fill="#F1F5F3"/>
<path d="M99.099 36.338V36.0019H100.111C100.561 36.0019 100.921 35.9459 101.191 35.8339C101.483 35.7219 101.697 35.509 101.832 35.1953C101.989 34.8816 102.068 34.4334 102.068 33.8509V12.6761H100.381C99.1215 12.6761 98.1093 12.8329 97.3446 13.1466C96.5798 13.4379 96.0175 13.9421 95.6576 14.6591C95.2977 15.3761 95.0728 16.3509 94.9828 17.5832L94.8816 19.163H94.5442L94.7804 12.34H115.766L116.002 19.163H115.665L115.53 17.5832C115.44 16.3509 115.215 15.3761 114.855 14.6591C114.495 13.9421 113.933 13.4379 113.168 13.1466C112.404 12.8329 111.391 12.6761 110.132 12.6761H108.479V33.9181C108.479 34.4783 108.557 34.9152 108.715 35.2289C108.872 35.5426 109.097 35.7555 109.39 35.8675C109.682 35.9571 110.031 36.0019 110.435 36.0019H111.448V36.338H99.099Z" fill="#F1F5F3"/>
<path d="M116.732 36.338V36.0019H118.183C118.43 36.0019 118.666 35.9459 118.891 35.8339C119.116 35.7219 119.296 35.5314 119.431 35.2625C119.566 34.9936 119.634 34.6351 119.634 34.187V14.5583C119.634 14.0877 119.555 13.718 119.397 13.4491C119.262 13.1578 119.071 12.9562 118.824 12.8441C118.576 12.7321 118.307 12.6761 118.014 12.6761H116.732V12.34H128.912V12.6761H127.562C127.18 12.6761 126.876 12.7321 126.651 12.8441C126.449 12.9562 126.292 13.1466 126.179 13.4155C126.067 13.662 126.01 14.0093 126.01 14.4574V36.0019H129.755C131.262 36.0019 132.466 35.8115 133.366 35.4306C134.288 35.0496 134.974 34.4222 135.424 33.5484C135.873 32.6745 136.155 31.4869 136.267 29.9856L136.335 28.7084H136.672L136.402 36.338H116.732Z" fill="#F1F5F3"/>
<path d="M140.828 36.338V36.0019H141.941C142.436 36.0019 142.841 35.9459 143.156 35.8339C143.471 35.6994 143.707 35.4754 143.864 35.1617C144.044 34.8256 144.134 34.355 144.134 33.75V28.0026L137.791 14.4574C137.611 14.0093 137.409 13.662 137.184 13.4155C136.981 13.1466 136.757 12.9562 136.509 12.8441C136.284 12.7321 136.025 12.6761 135.733 12.6761H135.632V12.34H147.441V12.6761H147.036C146.159 12.6761 145.517 12.7769 145.113 12.9786C144.708 13.1802 144.505 13.5163 144.505 13.9869C144.505 14.2558 144.55 14.5471 144.64 14.8608C144.753 15.1745 144.91 15.5554 145.113 16.0035L148.385 23.2635C148.588 23.622 148.745 23.9469 148.858 24.2382C148.993 24.5071 149.116 24.7871 149.229 25.0784C149.364 25.3697 149.521 25.7058 149.701 26.0868C149.881 26.4677 150.106 26.927 150.376 27.4648C150.488 27.1511 150.612 26.8262 150.747 26.4901C150.882 26.1316 151.028 25.7843 151.186 25.4482L155.032 16.138C155.257 15.6002 155.414 15.1633 155.504 14.8272C155.617 14.4911 155.673 14.1998 155.673 13.9533C155.673 13.4827 155.504 13.1578 155.167 12.9786C154.83 12.7769 154.301 12.6761 153.581 12.6761H152.063V12.34H158.979V12.6761H158.608C158.226 12.6761 157.877 12.7433 157.562 12.8777C157.248 12.9898 156.955 13.2026 156.685 13.5163C156.438 13.83 156.19 14.2782 155.943 14.8608L150.545 27.8345V33.7836C150.545 34.3886 150.623 34.848 150.781 35.1617C150.938 35.4754 151.152 35.6994 151.422 35.8339C151.692 35.9459 152.007 36.0019 152.367 36.0019H153.885V36.338H140.828Z" fill="#F1F5F3"/>
<path fill-rule="evenodd" clip-rule="evenodd" d="M24.6201 36.8182V35.5218H27.0252C27.3918 35.5218 27.6702 35.4814 27.8741 35.4155C28.0388 35.35 28.1557 35.2416 28.238 35.0672C28.3345 34.8392 28.3989 34.4785 28.3989 33.9517V14.5919C28.3989 14.0786 28.3319 13.7652 28.2473 13.5966L28.2324 13.567C28.1655 13.4069 28.0798 13.3337 27.9739 13.2954L27.9478 13.2859L27.923 13.2736C27.7798 13.2022 27.5873 13.1562 27.3288 13.1562H24.6201V11.8598H34.8857L44.9649 28.1565V14.5919C44.9649 14.1313 44.9 13.8365 44.8133 13.6638L44.7984 13.6342C44.7228 13.4534 44.6277 13.3595 44.5228 13.3072L44.5062 13.2989L44.4903 13.2895C44.3541 13.208 44.1737 13.1562 43.9286 13.1562H40.9499V11.8598H69.7594L70.0315 19.1389H68.7549L68.6127 17.6281C68.5035 16.4529 68.2661 15.5581 67.9247 14.918L67.9218 14.9126C67.5925 14.2759 67.1091 13.8433 66.4575 13.5951L66.4412 13.5889C65.7808 13.3098 64.8739 13.1562 63.6943 13.1562H60.33V23.153H68.0563V24.4494H60.33V35.5218H64.7402C65.9437 35.5218 66.8614 35.3681 67.521 35.0894L67.5257 35.0874C68.1884 34.8156 68.6755 34.3767 69.0043 33.76C69.3432 33.1245 69.5704 32.2235 69.6578 31.0263L69.6586 31.0149L69.8021 29.5391H71.0774L70.8053 36.8182H50.1552V35.5218H52.0205C52.2689 35.5218 52.4563 35.4793 52.5977 35.4126C52.7173 35.3368 52.817 35.2222 52.8914 35.0442L52.9042 35.0136C52.9963 34.8302 53.0568 34.5736 53.0568 34.2206V14.6255C53.0568 14.0601 52.9881 13.7281 52.9052 13.563C52.8167 13.3867 52.7125 13.3032 52.598 13.2618L52.5837 13.2565C52.4261 13.1938 52.2302 13.1562 51.9867 13.1562H47.3363C47.0687 13.1562 46.8616 13.2082 46.699 13.2943C46.5864 13.3642 46.4825 13.4822 46.4028 13.6887C46.321 13.9007 46.2662 14.2366 46.2662 14.7263V36.8182H42.7484L29.7002 15.7155V33.9517C29.7002 34.4794 29.7423 34.8585 29.8108 35.1097C29.885 35.2925 29.9737 35.3822 30.0586 35.4295C30.2061 35.484 30.4256 35.5218 30.7365 35.5218H33.7152V36.8182H24.6201ZM29.8406 35.8579C29.625 35.7441 29.4625 35.5456 29.3532 35.2625C29.3243 35.1617 29.3 35.0482 29.2804 34.922C29.239 34.6553 29.2182 34.3319 29.2182 33.9517V14.0205L43.0176 36.338H45.7842V14.7263C45.7842 14.6806 45.7847 14.6358 45.7856 14.5919C45.7916 14.2937 45.8179 14.0361 45.8647 13.819C45.8887 13.7074 45.9181 13.6065 45.9529 13.5163C46.0654 13.225 46.2341 13.0122 46.459 12.8777C46.4974 12.8569 46.5367 12.8377 46.5772 12.8201C46.7981 12.7241 47.0511 12.6761 47.3363 12.6761H49.698V12.34H41.4319V12.6761H43.9286C44.1947 12.6761 44.4287 12.7241 44.6306 12.8201C44.6676 12.8377 44.7035 12.8569 44.7383 12.8777C44.9633 12.9898 45.132 13.1802 45.2444 13.4491C45.2979 13.5556 45.3407 13.6797 45.373 13.8213C45.4222 14.0373 45.4469 14.2942 45.4469 14.5919V29.8512L34.6165 12.34H25.102V12.6761H27.3288C27.6204 12.6761 27.8734 12.7241 28.0878 12.8201C28.105 12.8278 28.1219 12.8358 28.1386 12.8441C28.386 12.9337 28.5659 13.113 28.6784 13.3819C28.6993 13.4235 28.7186 13.4684 28.7363 13.5165C28.7879 13.657 28.8256 13.825 28.8496 14.0205C28.858 14.0885 28.8646 14.1598 28.8696 14.2344C28.8729 14.2831 28.8754 14.3331 28.8773 14.3846C28.8797 14.4513 28.8808 14.5204 28.8808 14.5919V33.9517C28.8808 34.3245 28.851 34.6427 28.7912 34.9063C28.7612 35.0388 28.7236 35.1576 28.6784 35.2625C28.5472 35.5456 28.3417 35.7441 28.0617 35.8579C28.0536 35.8612 28.0455 35.8644 28.0374 35.8675C27.7675 35.9571 27.4301 36.0019 27.0252 36.0019H25.102V36.338H33.2332V36.0019H30.7365C30.3766 36.0019 30.0842 35.9571 29.8593 35.8675C29.853 35.8644 29.8468 35.8612 29.8406 35.8579ZM52.8302 35.8339C52.8135 35.8422 52.7966 35.8502 52.7794 35.8579C52.565 35.9539 52.312 36.0019 52.0205 36.0019H50.6372V36.338H70.3409L70.5771 30.0192H70.2397L70.1385 31.0611C70.1113 31.434 70.0707 31.7833 70.0167 32.109C69.8922 32.8598 69.6967 33.4852 69.43 33.9853C69.0476 34.7023 68.474 35.2177 67.7093 35.5314C67.3777 35.6715 66.9967 35.7803 66.5664 35.8579C66.0334 35.9539 65.4247 36.0019 64.7402 36.0019H59.848V23.9693H67.5743V23.6332H59.848V12.6761H63.6943C64.3663 12.6761 64.966 12.7241 65.4935 12.8201C65.9193 12.8976 66.298 13.0065 66.6296 13.1466C67.3944 13.4379 67.9679 13.9533 68.3503 14.6927C68.6313 15.2196 68.8394 15.8795 68.9746 16.6726C69.0234 16.9588 69.0628 17.2623 69.0926 17.5832L69.1938 18.6588H69.5312L69.4896 17.5466L69.295 12.34H50.6372V12.6761H51.9867C52.2792 12.6761 52.5378 12.7209 52.7628 12.8105C52.7713 12.8136 52.7798 12.8168 52.7882 12.8201C53.0233 12.9126 53.206 13.0887 53.3363 13.3483C53.4713 13.6172 53.5388 14.0429 53.5388 14.6255V34.2206C53.5388 34.6239 53.4713 34.96 53.3363 35.2289C53.2239 35.4978 53.0552 35.6994 52.8302 35.8339ZM71.1002 36.8182V35.5218H72.7968C73.1508 35.5218 73.4495 35.4737 73.6998 35.3868C73.9152 35.2917 74.1277 35.1206 74.3313 34.8441L74.3343 34.8399C74.5603 34.5398 74.7755 34.1026 74.9682 33.5066L81.4802 11.8598H87.0474L94.1691 33.6552C94.3602 34.1397 94.5559 34.5259 94.7529 34.8216C94.9355 35.0746 95.1332 35.2513 95.3422 35.3674C95.5885 35.4694 95.8544 35.5218 96.1444 35.5218H96.7951V36.8182H84.2923V35.5218H86.1913C86.6536 35.5218 86.8068 35.4212 86.8432 35.3804C86.9268 35.2868 86.9914 35.1413 86.9914 34.8928C86.9914 34.7823 86.9756 34.6698 86.9425 34.5541L86.9323 34.5185L86.9276 34.4818C86.9073 34.3194 86.8763 34.144 86.8342 33.955C86.7908 33.7604 86.7475 33.5771 86.7044 33.405L85.1215 28.0122H77.9799L76.5329 32.8064C76.5326 32.8074 76.5324 32.8085 76.5321 32.8095C76.4437 33.1177 76.3667 33.4028 76.3009 33.6648C76.2349 33.9278 76.1805 34.1667 76.1373 34.3819L76.1353 34.392C76.0977 34.5603 76.0791 34.727 76.0791 34.8928C76.0791 35.191 76.1464 35.3249 76.1984 35.3835C76.2771 35.4457 76.4604 35.5218 76.8455 35.5218H79.588V36.8182H71.1002ZM75.8671 35.733C75.6871 35.5538 75.5972 35.2737 75.5972 34.8928C75.5972 34.7601 75.6069 34.6274 75.6264 34.4947C75.6365 34.4257 75.6492 34.3567 75.6646 34.2878C75.6974 34.1244 75.7362 33.9492 75.7809 33.762C75.7815 33.7597 75.7821 33.7573 75.7826 33.7549C75.7988 33.6876 75.8157 33.6187 75.8333 33.5483C75.9008 33.2795 75.9795 32.9882 76.0695 32.6745L77.6215 27.532H85.4828L87.1697 33.2795C87.2147 33.4587 87.2597 33.6492 87.3047 33.8508C87.3497 34.0525 87.3834 34.243 87.4059 34.4222C87.4509 34.5791 87.4734 34.7359 87.4734 34.8928C87.4734 35.2289 87.3834 35.4978 87.2035 35.6994C87.1477 35.7619 87.0768 35.8148 86.9908 35.8579C86.7993 35.9539 86.5328 36.0019 86.1913 36.0019H84.7742V36.338H96.3131V36.0019H96.1444C95.8402 36.0019 95.5521 35.9539 95.2801 35.8579C95.2303 35.8403 95.181 35.8211 95.1322 35.8003C94.8398 35.6434 94.5811 35.4081 94.3562 35.0944C94.1313 34.7583 93.9176 34.3326 93.7152 33.8172L86.6974 12.34H81.8389L75.4285 33.6492C75.366 33.8429 75.3002 34.0238 75.2313 34.1918C75.2301 34.1948 75.2289 34.1978 75.2277 34.2007C75.2054 34.2547 75.1828 34.3074 75.1599 34.3588C75.0248 34.6614 74.8782 34.9178 74.7199 35.128C74.4725 35.4642 74.1913 35.6994 73.8764 35.8339C73.8531 35.8422 73.8295 35.8502 73.8056 35.8579C73.5079 35.9539 73.1716 36.0019 72.7968 36.0019H71.5822V36.338H79.106V36.0019H76.8455C76.5162 36.0019 76.2533 35.9539 76.0565 35.8579C75.9845 35.8227 75.9213 35.7811 75.8671 35.733ZM85.3816 27.1959L82.9861 18.8604C82.8736 18.4571 82.7386 17.9754 82.5812 17.4152C82.4237 16.855 82.2663 16.2724 82.1088 15.6674C82.0392 15.3999 81.9696 15.1368 81.9 14.878C81.8491 14.6888 81.7981 14.5019 81.7472 14.3174C81.7103 14.1836 81.6734 14.051 81.6365 13.9197C81.5651 14.2395 81.4867 14.5594 81.4012 14.8792C81.3789 14.9627 81.3561 15.0462 81.3328 15.1296C81.2204 15.533 81.0967 15.9475 80.9617 16.3732C80.8492 16.7766 80.7255 17.1799 80.5906 17.5832C80.4781 17.9866 80.3544 18.3899 80.2194 18.7932L77.7227 27.1959H85.3816ZM78.3681 26.7158H84.7422L82.5216 18.989C82.4093 18.586 82.2744 18.1046 82.1171 17.5446C81.9591 16.9828 81.8013 16.3989 81.6436 15.7929C81.5739 16.0285 81.5006 16.2675 81.4238 16.5099C81.3108 16.9146 81.1868 17.3192 81.0517 17.7235C80.9386 18.1283 80.8145 18.5329 80.6793 18.9373L78.3681 26.7158ZM98.617 36.8182V35.5218H100.111C100.528 35.5218 100.817 35.4688 101.005 35.3907L101.018 35.3856C101.177 35.3246 101.3 35.2131 101.389 35.0061L101.4 34.9802C101.509 34.7633 101.586 34.4022 101.586 33.8508V13.1562H100.381C99.1548 13.1562 98.2123 13.3099 97.528 13.5906L97.5167 13.5952C96.8624 13.8445 96.3936 14.2663 96.0887 14.8738C95.7682 15.5124 95.5513 16.4169 95.4636 17.6161C95.4636 17.6167 95.4637 17.6154 95.4636 17.6161L95.3337 19.6431H94.0452L94.3147 11.8598H116.232L116.25 12.384V11.8598H129.394V13.1562H127.562C127.228 13.1562 127.01 13.2052 126.877 13.2687C126.794 13.3173 126.703 13.4109 126.624 13.6002L126.618 13.6143C126.547 13.7705 126.492 14.0386 126.492 14.4574V35.5218H129.755C131.229 35.5218 132.36 35.3344 133.177 34.9886L133.181 34.987C133.999 34.6491 134.598 34.1004 134.995 33.3292C135.403 32.5355 135.676 31.4205 135.786 29.9551C135.786 29.9534 135.786 29.9516 135.786 29.9499L135.877 28.2282H137.171L136.867 36.8182H116.25V35.5218H118.183C118.354 35.5218 118.517 35.4837 118.676 35.4044C118.79 35.3476 118.902 35.2428 119 35.0478C119.089 34.8702 119.152 34.5941 119.152 34.1869V14.5583C119.152 14.1326 119.079 13.8582 118.981 13.691L118.969 13.6712L118.96 13.6503C118.864 13.4432 118.748 13.3371 118.624 13.2812C118.444 13.1997 118.243 13.1562 118.014 13.1562H116.277L116.501 19.6431H115.222L115.049 17.6181C114.962 16.4179 114.745 15.5127 114.424 14.8738C114.119 14.2663 113.65 13.8443 112.996 13.5951L112.985 13.5907C112.3 13.31 111.358 13.1562 110.132 13.1562H108.96V33.9181C108.96 34.4434 109.036 34.7953 109.146 35.0141C109.253 35.2286 109.388 35.3486 109.548 35.4137C109.78 35.4824 110.073 35.5218 110.435 35.5218H111.93V36.8182H98.617ZM109.365 35.8579C109.085 35.7435 108.868 35.5338 108.715 35.2289C108.557 34.9152 108.478 34.4782 108.478 33.9181V12.6761H110.132C110.829 12.6761 111.45 12.7241 111.995 12.8201C112.436 12.8976 112.827 13.0065 113.168 13.1466C113.933 13.4379 114.495 13.9421 114.855 14.6591C115.123 15.1926 115.316 15.8688 115.434 16.6876C115.475 16.9693 115.507 17.2678 115.53 17.5832L115.665 19.1629H116.002L115.766 12.34H94.7803L94.5442 19.1629H94.8815L94.9828 17.5832C95.0134 17.1637 95.0597 16.774 95.1216 16.4142C95.2415 15.717 95.4202 15.132 95.6575 14.6591C96.0174 13.9421 96.5798 13.4379 97.3445 13.1466C97.6861 13.0065 98.0771 12.8976 98.5175 12.8201C99.063 12.7241 99.6841 12.6761 100.381 12.6761H102.068V33.8508C102.068 34.4334 101.989 34.8816 101.832 35.1953C101.697 35.509 101.483 35.7218 101.191 35.8339C101.171 35.8422 101.15 35.8502 101.129 35.8579C100.867 35.9539 100.528 36.0019 100.111 36.0019H99.099V36.338H111.448V36.0019H110.435C110.03 36.0019 109.682 35.9571 109.389 35.8675C109.381 35.8644 109.373 35.8612 109.365 35.8579ZM136.094 31.406C135.944 32.257 135.721 32.9711 135.424 33.5483C134.974 34.4222 134.288 35.0496 133.365 35.4305C132.917 35.6202 132.394 35.7627 131.796 35.8579C131.192 35.9539 130.512 36.0019 129.755 36.0019H126.01V14.4574C126.01 14.0093 126.067 13.662 126.179 13.4155C126.291 13.1466 126.449 12.9562 126.651 12.8441C126.668 12.8358 126.685 12.8278 126.703 12.8201C126.922 12.7241 127.208 12.6761 127.562 12.6761H128.912V12.34H116.732V12.6761H118.014C118.285 12.6761 118.536 12.7241 118.768 12.8201C118.787 12.8278 118.805 12.8358 118.824 12.8441C119.071 12.9562 119.262 13.1578 119.397 13.4491C119.555 13.718 119.634 14.0877 119.634 14.5583V34.1869C119.634 34.6351 119.566 34.9936 119.431 35.2625C119.296 35.5314 119.116 35.7218 118.891 35.8339C118.875 35.8422 118.858 35.8502 118.841 35.8579C118.631 35.9539 118.412 36.0019 118.183 36.0019H116.732V36.338H136.402L136.672 28.7084H136.335L136.267 29.9856C136.229 30.4952 136.171 30.9687 136.094 31.406ZM140.346 36.8182V35.5218H141.941C142.396 35.5218 142.736 35.4707 142.979 35.3868C143.179 35.298 143.327 35.1575 143.433 34.9469L143.439 34.9356C143.566 34.6983 143.652 34.3179 143.652 33.75V28.1091L137.343 14.636C137.176 14.2193 137 13.9281 136.827 13.7385L136.812 13.7217L136.798 13.7036C136.633 13.4838 136.468 13.3528 136.31 13.2812L136.293 13.2739C136.145 13.2002 135.963 13.1562 135.733 13.1562H135.15V11.8598H147.923V13.1562H147.036C146.176 13.1562 145.629 13.2583 145.328 13.408C145.195 13.4743 145.118 13.5504 145.07 13.6289C145.022 13.7086 144.987 13.8211 144.987 13.9869C144.987 14.199 145.022 14.4406 145.099 14.7141C145.206 15.009 145.356 15.3724 145.552 15.8065L148.816 23.0472C149.017 23.4043 149.179 23.7369 149.299 24.044C149.435 24.3163 149.559 24.5988 149.673 24.8913C149.806 25.178 149.96 25.5083 150.137 25.8823C150.193 26.0008 150.254 26.1271 150.319 26.2612C150.45 25.9162 150.592 25.5809 150.744 25.2552L154.586 15.9552C154.808 15.426 154.957 15.0096 155.039 14.7034L155.046 14.675C155.149 14.3684 155.191 14.131 155.191 13.9533C155.191 13.6105 155.081 13.4771 154.94 13.4022L154.919 13.3908C154.696 13.2575 154.275 13.1562 153.581 13.1562H151.581V11.8598H159.461V13.1562H158.608C158.284 13.1562 158.001 13.2131 157.752 13.3191L157.725 13.3308C157.508 13.4079 157.284 13.5604 157.058 13.821C156.85 14.0874 156.624 14.4892 156.388 15.0459C156.387 15.0466 156.388 15.0453 156.388 15.0459L151.027 27.9301V33.7836C151.027 34.3608 151.104 34.7319 151.212 34.9469C151.327 35.1768 151.467 35.3156 151.623 35.3972C151.82 35.4759 152.064 35.5218 152.366 35.5218H154.367V36.8182H140.346ZM151.422 35.8339C151.152 35.6994 150.938 35.4754 150.781 35.1617C150.623 34.848 150.545 34.3886 150.545 33.7836V27.8345L155.356 16.2723L155.943 14.8608C155.99 14.7497 156.037 14.6436 156.084 14.5423C156.285 14.1122 156.485 13.7702 156.685 13.5163C156.955 13.2026 157.247 12.9898 157.562 12.8777C157.611 12.8569 157.661 12.8377 157.711 12.8201C157.986 12.7241 158.285 12.6761 158.608 12.6761H158.979V12.34H152.063V12.6761H153.581C154.078 12.6761 154.483 12.7241 154.798 12.8201C154.939 12.8632 155.062 12.9161 155.167 12.9786C155.504 13.1578 155.673 13.4827 155.673 13.9533C155.673 14.0859 155.657 14.2314 155.624 14.3899C155.604 14.4864 155.578 14.5877 155.547 14.6938C155.546 14.6948 155.546 14.6958 155.546 14.6968C155.533 14.7395 155.519 14.7829 155.504 14.8272C155.414 15.1633 155.257 15.6002 155.032 16.138L151.186 25.4481C151.028 25.7843 150.882 26.1316 150.747 26.4901C150.699 26.6107 150.652 26.7298 150.606 26.8475C150.525 27.0579 150.448 27.2636 150.376 27.4648C150.339 27.3909 150.302 27.3184 150.267 27.2474C150.202 27.1173 150.14 26.9922 150.081 26.872C149.938 26.581 149.811 26.3193 149.701 26.0868C149.521 25.7058 149.364 25.3697 149.229 25.0784C149.116 24.7871 148.993 24.507 148.858 24.2382C148.745 23.9469 148.588 23.622 148.385 23.2635L145.113 16.0035C144.91 15.5554 144.753 15.1745 144.64 14.8608C144.55 14.5471 144.505 14.2558 144.505 13.9869C144.505 13.5163 144.708 13.1802 145.113 12.9786C145.238 12.9161 145.386 12.8632 145.557 12.8201C145.937 12.7241 146.43 12.6761 147.036 12.6761H147.441V12.34H135.632V12.6761H135.733C136.004 12.6761 136.246 12.7241 136.458 12.8201C136.475 12.8278 136.492 12.8358 136.509 12.8441C136.756 12.9562 136.981 13.1466 137.184 13.4155C137.409 13.662 137.611 14.0093 137.791 14.4574L144.134 28.0026V33.75C144.134 34.355 144.044 34.8256 143.864 35.1617C143.707 35.4754 143.471 35.6994 143.156 35.8339C143.132 35.8422 143.108 35.8502 143.084 35.8579C142.78 35.9539 142.399 36.0019 141.941 36.0019H140.828V36.338H153.885V36.0019H152.366C152.033 36.0019 151.739 35.9539 151.483 35.8579C151.462 35.8502 151.442 35.8422 151.422 35.8339Z" fill="#F1F5F3"/>
<path d="M17.5955 11.687C16.8861 11.4694 13.2576 10.2727 12.9901 10.1639C12.8622 10.1155 12.7691 9.87379 12.7226 9.46279C12.3388 6.3924 11.7341 3.23734 11.4666 2.88678C11.2689 2.62084 10.5944 2.70546 10.4083 3.00766C10.2222 3.30987 9.36162 6.3682 8.84991 8.59242L8.51266 10.043C1.90694 12.2189 1.54639 12.1705 4.53525 13.1255L7.17523 13.9717C8.67547 14.4552 8.71035 14.4672 8.79176 14.8541C8.90806 15.4101 9.66399 18.1179 9.95474 19.4113C10.5711 22.1916 11.8271 20.4751 12.932 15.3014L13.1878 14.1167C13.3274 14.0926 14.2112 14.0079 18.0258 13.1497C18.898 12.9442 18.6422 12.0013 17.5955 11.687ZM15.9441 12.2793C15.851 12.3639 13.3041 13.0046 12.804 13.0046C12.1993 13.0046 12.0597 13.3068 11.3736 16.1475C10.92 18.0212 10.8851 18.0574 10.6293 16.9695C10.3153 15.6035 9.67561 14.0079 9.5942 13.6332C9.52442 13.2947 8.87317 13.053 6.3495 12.4244C5.08186 12.1101 4.88415 12.0013 5.36097 11.8562C5.95409 11.6749 8.80338 10.7078 9.12901 10.7078C9.44301 10.7078 9.71051 10.4661 9.80354 10.1034L10.7107 6.42865C10.8735 5.78798 10.8735 5.78796 11.3271 8.29021C11.8504 11.1068 11.7922 10.9859 12.6296 11.1672C13.6763 11.3968 16.0487 12.1826 15.9441 12.2793Z" fill="#E76B39"/>
<path d="M15.9441 12.2793C15.851 12.3639 13.3041 13.0046 12.804 13.0046C12.1993 13.0046 12.0597 13.3068 11.3736 16.1475C10.92 18.0212 10.8851 18.0574 10.6293 16.9695C10.3153 15.6035 9.67561 14.0079 9.5942 13.6332C9.52442 13.2947 8.87317 13.053 6.3495 12.4244C5.08186 12.1101 4.88415 12.0013 5.36097 11.8562C5.95409 11.6749 8.80338 10.7078 9.12901 10.7078C9.44301 10.7078 9.71051 10.4661 9.80354 10.1034L10.7107 6.42865C10.8735 5.78798 10.8735 5.78796 11.3271 8.29021C11.8504 11.1068 11.7922 10.9859 12.6296 11.1672C13.6763 11.3968 16.0487 12.1826 15.9441 12.2793Z" fill="#E76B39"/>
</svg>
