<svg width="40" height="39" viewBox="0 0 40 39" fill="none" xmlns="http://www.w3.org/2000/svg">
<path d="M37.574 13.1514C37.324 13.2052 33.968 13.984 29.668 16.685C29.022 13.5637 27.11 7.71954 21.452 1.77578L20 0.25L18.548 1.77777C12.87 7.74345 10.966 13.6036 10.326 16.7447C6.01 13.9979 2.68 13.2092 2.436 13.1534L0 12.6116V15.0975C0 29.6183 7.85 39 20 39C31.962 39 40 29.3952 40 15.0975V12.6235L37.574 13.1514ZM13.998 19.1569C14.002 19.0912 14.302 12.9821 20 6.14596C25.628 12.9183 25.998 19.0812 26 19.0812V19.3302C23.7571 21.1865 21.7371 23.2946 19.98 25.6126C18.2179 23.3355 16.2121 21.2564 13.998 19.4119V19.1569ZM20 35.0162C9.368 35.0162 4.902 26.6583 4.126 17.9578C7.436 19.388 13.358 22.7901 18.34 30.1541L20.022 32.6419L21.672 30.1322C26.524 22.7463 32.522 19.3541 35.864 17.9379C35.068 26.3595 30.608 35.0162 20 35.0162Z" fill="white"/>
</svg>
