<svg width="54" height="38" viewBox="0 0 54 38" fill="none" xmlns="http://www.w3.org/2000/svg">
<path d="M2 29V36.5M27 21.5V6.5C27 5.17392 27.5268 3.90215 28.4645 2.96447C29.4021 2.02678 30.6739 1.5 32 1.5H42C43.3261 1.5 44.5979 2.02678 45.5355 2.96447C46.4732 3.90215 47 5.17392 47 6.5V11.5M27 21.5V6.5C27 5.17392 26.4732 3.90215 25.5355 2.96447C24.5979 2.02678 23.3261 1.5 22 1.5H12C10.6739 1.5 9.40215 2.02678 8.46447 2.96447C7.52678 3.90215 7 5.17392 7 6.5V11.5" stroke="white" stroke-width="3" stroke-linecap="round" stroke-linejoin="round"/>
<path d="M52 29V36.5M47 11.5C45.6739 11.5 44.4021 12.0268 43.4645 12.9645C42.5268 13.9021 42 15.1739 42 16.5V21.5H12V16.5C12 15.1739 11.4732 13.9021 10.5355 12.9645C9.59785 12.0268 8.32608 11.5 7 11.5C5.67392 11.5 4.40215 12.0268 3.46447 12.9645C2.52678 13.9021 2 15.1739 2 16.5V31.5H52V16.5C52 15.1739 51.4732 13.9021 50.5355 12.9645C49.5979 12.0268 48.3261 11.5 47 11.5Z" stroke="white" stroke-width="3" stroke-linecap="round" stroke-linejoin="round"/>
</svg>
