<svg width="60" height="60" viewBox="0 0 60 60" fill="none" xmlns="http://www.w3.org/2000/svg">
<path d="M39.137 49.9999C39.6681 50.003 40.1945 49.9002 40.6855 49.6977C41.1765 49.4951 41.6222 49.1968 41.9967 48.8201L47.4161 43.4006C47.7885 43.026 47.9976 42.5191 47.9976 41.9908C47.9976 41.4625 47.7885 40.9556 47.4161 40.5809L39.4169 32.5818C39.0422 32.2093 38.5354 32.0003 38.0071 32.0003C37.4788 32.0003 36.9719 32.2093 36.5972 32.5818L33.3976 35.7614C31.1823 35.1708 29.1307 34.0834 27.3982 32.5818C25.9006 30.8466 24.8138 28.7959 24.2186 26.5824L27.3982 23.3828C27.7707 23.0081 27.9797 22.5012 27.9797 21.9729C27.9797 21.4446 27.7707 20.9378 27.3982 20.5631L19.3991 12.5639C19.0244 12.1915 18.5175 11.9824 17.9892 11.9824C17.4609 11.9824 16.9541 12.1915 16.5794 12.5639L11.1799 18.0033C10.8032 18.3778 10.5049 18.8235 10.3023 19.3145C10.0998 19.8055 9.997 20.3319 10.0001 20.863C10.1815 28.5468 13.2519 35.88 18.5992 41.4008C24.12 46.7481 31.4532 49.8185 39.137 49.9999ZM17.9992 16.8235L23.1787 22.0029L20.5989 24.5826C20.3546 24.8115 20.1716 25.0981 20.0668 25.416C19.962 25.734 19.9387 26.0731 19.999 26.4024C20.7465 29.7428 22.329 32.8391 24.5985 35.4015C27.159 37.6739 30.256 39.2569 33.5976 40.001C33.9219 40.0688 34.258 40.055 34.5756 39.9607C34.8932 39.8665 35.1825 39.6948 35.4174 39.4611L37.9971 36.8213L43.1765 42.0008L39.177 46.0004C32.5451 45.8296 26.2173 43.1829 21.4388 38.5812C16.8252 33.8007 14.1708 27.4645 13.9996 20.823L17.9992 16.8235ZM45.9962 28.0023H49.9958C50.0477 25.6245 49.6176 23.2609 48.7314 21.0538C47.8453 18.8468 46.5215 16.842 44.8398 15.1602C43.158 13.4785 41.1532 12.1547 38.9462 11.2686C36.7391 10.3824 34.3755 9.95233 31.9977 10.0042V14.0038C33.8533 13.9396 35.7023 14.2578 37.4297 14.9385C39.1572 15.6193 40.7261 16.6481 42.039 17.961C43.3519 19.2739 44.3807 20.8428 45.0615 22.5703C45.7422 24.2977 46.0604 26.1467 45.9962 28.0023Z" fill="white"/>
<path d="M31.25 22.75C35.45 22.75 37.25 24.55 37.25 28.75H41.25C41.25 22.31 37.69 18.75 31.25 18.75V22.75Z" fill="white"/>
</svg>
