<svg width="48" height="36" viewBox="0 0 48 36" fill="none" xmlns="http://www.w3.org/2000/svg">
<path d="M46.627 14.133L33.5102 9.2703L28.0273 2.16955C27.5506 1.56832 26.95 1.08413 26.2693 0.752103C25.5885 0.420081 24.8446 0.248567 24.0916 0.250009H10.527C9.69736 0.249722 8.88028 0.458769 8.14696 0.858923C7.41365 1.25908 6.78637 1.83819 6.31982 2.54576L1.71911 9.51527C0.760887 10.9658 0.248905 12.6805 0.250002 14.4357V28.247C0.250002 28.7111 0.428732 29.1562 0.746874 29.4843C1.06502 29.8125 1.49651 29.9968 1.94643 29.9968H5.58018C5.94921 31.4986 6.79318 32.8306 7.97855 33.782C9.16392 34.7334 10.623 35.25 12.125 35.25C13.627 35.25 15.0861 34.7334 16.2715 33.782C17.4568 32.8306 18.3008 31.4986 18.6698 29.9968H29.3302C29.6992 31.4986 30.5432 32.8306 31.7285 33.782C32.9139 34.7334 34.373 35.25 35.875 35.25C37.377 35.25 38.8361 34.7334 40.0215 33.782C41.2068 32.8306 42.0508 31.4986 42.4198 29.9968H46.0536C46.5035 29.9968 46.935 29.8125 47.2531 29.4843C47.5713 29.1562 47.75 28.7111 47.75 28.247V15.7796C47.7499 15.4193 47.6421 15.0677 47.4411 14.773C47.24 14.4783 46.9557 14.2548 46.627 14.133ZM12.125 31.7467C11.454 31.7467 10.798 31.5414 10.24 31.1569C9.68208 30.7723 9.24721 30.2257 8.99041 29.5863C8.73361 28.9468 8.66642 28.2431 8.79734 27.5643C8.92825 26.8854 9.25139 26.2618 9.72589 25.7724C10.2004 25.283 10.8049 24.9497 11.4631 24.8146C12.1212 24.6796 12.8034 24.7489 13.4234 25.0138C14.0434 25.2787 14.5732 25.7272 14.9461 26.3027C15.3189 26.8782 15.5179 27.5549 15.5179 28.247C15.5165 29.1748 15.1586 30.0641 14.5226 30.7201C13.8866 31.3761 13.0244 31.7453 12.125 31.7467ZM35.875 31.7467C35.204 31.7467 34.548 31.5414 33.99 31.1569C33.4321 30.7723 32.9972 30.2257 32.7404 29.5863C32.4836 28.9468 32.4164 28.2431 32.5473 27.5643C32.6782 26.8854 33.0014 26.2618 33.4759 25.7724C33.9504 25.283 34.5549 24.9497 35.2131 24.8146C35.8712 24.6796 36.5534 24.7489 37.1734 25.0138C37.7934 25.2787 38.3232 25.7272 38.6961 26.3027C39.0689 26.8782 39.2679 27.5549 39.2679 28.247C39.267 29.1749 38.9092 30.0645 38.2731 30.7206C37.637 31.3767 36.7746 31.7457 35.875 31.7467ZM44.3571 26.4972H42.4198C42.0508 24.9955 41.2068 23.6635 40.0215 22.7121C38.8361 21.7606 37.377 21.244 35.875 21.244C34.373 21.244 32.9139 21.7606 31.7285 22.7121C30.5432 23.6635 29.6992 24.9955 29.3302 26.4972H18.6698C18.3008 24.9955 17.4568 23.6635 16.2715 22.7121C15.0861 21.7606 13.627 21.244 12.125 21.244C10.623 21.244 9.16392 21.7606 7.97855 22.7121C6.79318 23.6635 5.94921 24.9955 5.58018 26.4972H3.64286V14.4357C3.64267 13.3822 3.95007 12.3529 4.525 11.4821L9.12402 4.51605C9.27953 4.27997 9.48867 4.08671 9.73321 3.95312C9.97775 3.81953 10.2502 3.74968 10.527 3.74964H24.0916C24.3384 3.74863 24.5825 3.8036 24.8064 3.91064C25.0304 4.01768 25.2288 4.17418 25.3877 4.36907L31.1555 11.839C31.3517 12.093 31.6125 12.2857 31.9088 12.3955L44.3571 17.0097V26.4972Z" fill="white"/>
</svg>
