<svg width="46" height="34" viewBox="0 0 46 34" fill="none" xmlns="http://www.w3.org/2000/svg">
<path d="M33.5897 22.3428C30.7665 19.9348 27.0792 18.4773 23.0402 18.4773C19.0013 18.4773 15.314 19.9348 12.4857 22.3477C12.4076 22.4167 12.3598 22.5127 12.3523 22.6156C12.3448 22.7184 12.3782 22.82 12.4455 22.8992L14.254 25.0117C14.3997 25.1792 14.6559 25.1989 14.8267 25.0561C17.017 23.1652 19.8905 22.0227 23.0402 22.0227C26.19 22.0227 29.0635 23.1652 31.2538 25.0511C31.4246 25.1939 31.6808 25.1742 31.8265 25.0068L33.635 22.8943C33.7756 22.7318 33.7555 22.4856 33.5897 22.3428ZM39.4874 15.4439C35.0315 11.8049 29.2996 9.61364 23.0402 9.61364C16.7809 9.61364 11.049 11.8049 6.58804 15.4439C6.50643 15.5114 6.45535 15.6078 6.44594 15.712C6.43653 15.8163 6.46955 15.9199 6.5378 16.0004L8.34629 18.1129C8.48695 18.2803 8.74315 18.3 8.90893 18.1621C12.7419 15.0402 17.67 13.1591 23.0402 13.1591C28.4104 13.1591 33.3386 15.0402 37.1665 18.1621C37.3373 18.3 37.5885 18.2803 37.7292 18.1129L39.5377 16.0004C39.6783 15.833 39.6582 15.5818 39.4874 15.4439ZM45.3499 8.59924C39.2513 3.6947 31.4447 0.75 22.9398 0.75C14.4901 0.75 6.73372 3.6553 0.650178 8.50076C0.608382 8.53367 0.573727 8.57445 0.548255 8.6207C0.522783 8.66694 0.507007 8.71771 0.501858 8.77003C0.496709 8.82234 0.502289 8.87513 0.518271 8.92529C0.534254 8.97546 0.560314 9.02198 0.594918 9.06212L2.4034 11.1746C2.54406 11.3371 2.79524 11.3617 2.96102 11.2288C8.42164 6.89053 15.3692 4.29545 22.9398 4.29545C30.5656 4.29545 37.5584 6.92992 43.0341 11.3223C43.2049 11.4602 43.456 11.4356 43.5967 11.2682L45.4052 9.15568C45.5509 8.98826 45.5257 8.73712 45.3499 8.59924ZM19.7749 30.0985C19.7749 30.9343 20.1136 31.7359 20.7166 32.3269C21.3195 32.918 22.1373 33.25 22.99 33.25C23.8427 33.25 24.6605 32.918 25.2634 32.3269C25.8664 31.7359 26.2051 30.9343 26.2051 30.0985C26.2051 29.2627 25.8664 28.4611 25.2634 27.87C24.6605 27.279 23.8427 26.947 22.99 26.947C22.1373 26.947 21.3195 27.279 20.7166 27.87C20.1136 28.4611 19.7749 29.2627 19.7749 30.0985Z" fill="white"/>
</svg>
