<svg width="12" height="15" viewBox="0 0 12 15" fill="none" xmlns="http://www.w3.org/2000/svg">
<path d="M8.50001 3.5C8.50001 4.16304 8.23661 4.79893 7.76777 5.26777C7.29893 5.73661 6.66305 6 6 6C5.33696 6 4.70108 5.73661 4.23224 5.26777C3.7634 4.79893 3.5 4.16304 3.5 3.5C3.5 2.83696 3.7634 2.20107 4.23224 1.73223C4.70108 1.26339 5.33696 1 6 1C6.66305 1 7.29893 1.26339 7.76777 1.73223C8.23661 2.20107 8.50001 2.83696 8.50001 3.5ZM1.00067 12.912C1.02209 11.6002 1.55823 10.3494 2.49346 9.42936C3.42868 8.50929 4.68806 7.99365 6 7.99365C7.31195 7.99365 8.57133 8.50929 9.50655 9.42936C10.4418 10.3494 10.9779 11.6002 10.9993 12.912C9.43093 13.6312 7.72544 14.0023 6 14C4.216 14 2.52267 13.6107 1.00067 12.912Z" stroke="#C8CCDB" stroke-linecap="round" stroke-linejoin="round"/>
</svg>
