<svg width="14" height="13" viewBox="0 0 14 13" fill="none" xmlns="http://www.w3.org/2000/svg">
<path d="M12.5 7.93333V10.7667C12.5 11.496 11.9753 12.124 11.252 12.22C9.86064 12.4047 8.44131 12.5 6.99998 12.5C5.55864 12.5 4.13931 12.4047 2.74798 12.22C2.02464 12.124 1.49998 11.496 1.49998 10.7667V7.93333M12.5 7.93333C12.6583 7.79577 12.7849 7.62557 12.8712 7.43442C12.9575 7.24328 13.0015 7.03572 13 6.826V4.304C13 3.58333 12.488 2.96067 11.7753 2.854C11.0202 2.74095 10.2612 2.65489 9.49998 2.596M12.5 7.93333C12.3706 8.04333 12.22 8.13 12.0513 8.18667C10.4221 8.72723 8.7165 9.00186 6.99998 9C5.23464 9 3.53664 8.714 1.94864 8.18667C1.78415 8.13195 1.63179 8.04592 1.49998 7.93333M1.49998 7.93333C1.34167 7.79577 1.21502 7.62557 1.12871 7.43442C1.0424 7.24328 0.998484 7.03572 0.999976 6.826V4.304C0.999976 3.58333 1.51198 2.96067 2.22464 2.854C2.97977 2.74094 3.7387 2.65489 4.49998 2.596M9.49998 2.596V2C9.49998 1.60218 9.34194 1.22064 9.06064 0.93934C8.77933 0.658035 8.3978 0.5 7.99998 0.5H5.99998C5.60215 0.5 5.22062 0.658035 4.93932 0.93934C4.65801 1.22064 4.49998 1.60218 4.49998 2V2.596M9.49998 2.596C7.83579 2.46739 6.16416 2.46739 4.49998 2.596M6.99998 7H7.00531V7.00533H6.99998V7Z" stroke="#C8CCDB" stroke-linecap="round" stroke-linejoin="round"/>
</svg>
