<svg width="14" height="11" viewBox="0 0 14 11" fill="none" xmlns="http://www.w3.org/2000/svg">
<path d="M0.5 3H13.5M0.5 3.5H13.5M2.5 7H6.5M2.5 8.5H4.5M2 10.5H12C12.3978 10.5 12.7794 10.342 13.0607 10.0607C13.342 9.77936 13.5 9.39782 13.5 9V2C13.5 1.60218 13.342 1.22064 13.0607 0.93934C12.7794 0.658035 12.3978 0.5 12 0.5H2C1.60218 0.5 1.22064 0.658035 0.93934 0.93934C0.658035 1.22064 0.5 1.60218 0.5 2V9C0.5 9.39782 0.658035 9.77936 0.93934 10.0607C1.22064 10.342 1.60218 10.5 2 10.5Z" stroke="#C8CCDB" stroke-linecap="round" stroke-linejoin="round"/>
</svg>
