<svg width="60" height="32" viewBox="0 0 60 32" fill="none" xmlns="http://www.w3.org/2000/svg">
<path fill-rule="evenodd" clip-rule="evenodd" d="M40.5 1.45455C40.5 1.06878 40.658 0.698807 40.9393 0.426027C41.2206 0.153247 41.6022 0 42 0H48C48.3978 0 48.7794 0.153247 49.0607 0.426027C49.342 0.698807 49.5 1.06878 49.5 1.45455V4.36364H54C54.3978 4.36364 54.7794 4.51688 55.0607 4.78966C55.342 5.06244 55.5 5.43241 55.5 5.81818V14.5455H60V17.4545H55.5V26.1818C55.5 26.5676 55.342 26.9376 55.0607 27.2103C54.7794 27.4831 54.3978 27.6364 54 27.6364H49.5V30.5455C49.5 30.9312 49.342 31.3012 49.0607 31.574C48.7794 31.8468 48.3978 32 48 32H42C41.6022 32 41.2206 31.8468 40.9393 31.574C40.658 31.3012 40.5 30.9312 40.5 30.5455V17.4545H19.5V30.5455C19.5 30.9312 19.342 31.3012 19.0607 31.574C18.7794 31.8468 18.3978 32 18 32H12C11.6022 32 11.2206 31.8468 10.9393 31.574C10.658 31.3012 10.5 30.9312 10.5 30.5455V27.6364H6C5.60218 27.6364 5.22064 27.4831 4.93934 27.2103C4.65804 26.9376 4.5 26.5676 4.5 26.1818V17.4545H0V14.5455H4.5V5.81818C4.5 5.43241 4.65804 5.06244 4.93934 4.78966C5.22064 4.51688 5.60218 4.36364 6 4.36364H10.5V1.45455C10.5 1.06878 10.658 0.698807 10.9393 0.426027C11.2206 0.153247 11.6022 0 12 0H18C18.3978 0 18.7794 0.153247 19.0607 0.426027C19.342 0.698807 19.5 1.06878 19.5 1.45455V14.5455H40.5V1.45455ZM13.5 29.0909H16.5V2.90909H13.5V29.0909ZM10.5 7.27273H7.5V24.7273H10.5V7.27273ZM49.5 24.7273V7.27273H52.5V24.7273H49.5ZM46.5 2.90909V29.0909H43.5V2.90909H46.5Z" fill="white"/>
</svg>
