<svg width="40" height="50" viewBox="0 0 40 50" fill="none" xmlns="http://www.w3.org/2000/svg">
<path d="M7.27274 23.2127H32.7273V19.6415H7.27274V23.2127ZM7.27274 26.7838V29.4622C7.27273 30.7518 7.53138 32.0289 8.03393 33.2204C8.53647 34.4119 9.27306 35.4945 10.2016 36.4065C11.1302 37.3184 12.2326 38.0418 13.4459 38.5354C14.6591 39.0289 15.9595 39.2829 17.2727 39.2829H22.7273C24.0405 39.2829 25.3409 39.0289 26.5541 38.5354C27.7674 38.0418 28.8698 37.3184 29.7984 36.4065C30.7269 35.4945 31.4635 34.4119 31.9661 33.2204C32.4686 32.0289 32.7273 30.7518 32.7273 29.4622V26.7838H7.27274ZM5.45452 16.0703H34.5455C34.7842 16.0703 35.0207 16.1165 35.2413 16.2062C35.4619 16.2959 35.6623 16.4275 35.8311 16.5933C36 16.7591 36.1339 16.9559 36.2253 17.1726C36.3166 17.3892 36.3637 17.6214 36.3636 17.8559V29.4622C36.3636 33.0139 34.927 36.4202 32.3696 38.9317C29.8123 41.4431 26.3439 42.8541 22.7273 42.8541H17.2727C13.6561 42.8541 10.1877 41.4431 7.63036 38.9317C5.07304 36.4202 3.63636 33.0139 3.63636 29.4622V17.8559C3.63635 17.6214 3.68337 17.3892 3.77474 17.1726C3.86611 16.9559 4.00003 16.7591 4.16887 16.5933C4.3377 16.4275 4.53813 16.2959 4.75873 16.2062C4.97932 16.1165 5.21575 16.0703 5.45452 16.0703ZM20 0C20.2388 -1.00634e-10 20.4752 0.0461869 20.6958 0.135923C20.9164 0.22566 21.1168 0.357188 21.2857 0.522999C21.4545 0.68881 21.5884 0.885656 21.6798 1.1023C21.7711 1.31894 21.8182 1.55113 21.8182 1.78562V10.7135C21.8182 11.1871 21.6266 11.6412 21.2856 11.9761C20.9447 12.311 20.4822 12.4991 20 12.4991C19.5178 12.4991 19.0553 12.311 18.7144 11.9761C18.3734 11.6412 18.1818 11.1871 18.1818 10.7135V1.78562C18.1818 1.55113 18.2289 1.31894 18.3202 1.1023C18.4116 0.885656 18.5455 0.68881 18.7143 0.522999C18.8832 0.357188 19.0836 0.22566 19.3042 0.135923C19.5248 0.0461869 19.7612 -1.00634e-10 20 0ZM12.7273 3.57119C13.2095 3.57119 13.672 3.75931 14.0129 4.09417C14.3539 4.42903 14.5455 4.8832 14.5455 5.35676V10.7135C14.5455 11.1871 14.3539 11.6413 14.0129 11.9761C13.6719 12.311 13.2095 12.4991 12.7273 12.4991C12.245 12.4991 11.7826 12.311 11.4416 11.9761C11.1006 11.6413 10.9091 11.1871 10.9091 10.7135V5.35676C10.9091 5.12227 10.9561 4.89008 11.0475 4.67344C11.1388 4.4568 11.2728 4.25996 11.4416 4.09415C11.6105 3.92835 11.8109 3.79682 12.0315 3.70709C12.2521 3.61736 12.4885 3.57118 12.7273 3.57119ZM27.2727 3.57119C27.5115 3.57118 27.7479 3.61736 27.9685 3.70709C28.1891 3.79682 28.3895 3.92835 28.5584 4.09415C28.7272 4.25996 28.8611 4.4568 28.9525 4.67344C29.0439 4.89008 29.0909 5.12227 29.0909 5.35676V10.7135C29.0909 11.1871 28.8994 11.6413 28.5584 11.9761C28.2174 12.311 27.755 12.4991 27.2727 12.4991C26.7905 12.4991 26.3281 12.311 25.9871 11.9761C25.6461 11.6413 25.4545 11.1871 25.4545 10.7135V5.35676C25.4545 4.8832 25.6461 4.42903 25.9871 4.09417C26.328 3.75931 26.7905 3.57119 27.2727 3.57119ZM1.81819 46.4288H38.1818C38.664 46.4288 39.1265 46.6169 39.4675 46.9518C39.8084 47.2867 40 47.7408 40 48.2144C40 48.688 39.8084 49.1421 39.4675 49.477C39.1265 49.8119 38.664 50 38.1818 50H1.81819C1.33598 50 0.873514 49.8119 0.532537 49.477C0.19156 49.1421 0 48.688 0 48.2144C0 47.7408 0.19156 47.2867 0.532537 46.9518C0.873514 46.6169 1.33598 46.4288 1.81819 46.4288Z" fill="white"/>
</svg>
