<svg width="56" height="56" viewBox="0 0 56 56" fill="none" xmlns="http://www.w3.org/2000/svg">
<path fill-rule="evenodd" clip-rule="evenodd" d="M36.25 28.0002C36.25 28.1991 36.171 28.3898 36.0303 28.5305C35.8897 28.6711 35.6989 28.7502 35.5 28.7502L22.31 28.7502L27.78 34.2202C27.9125 34.3623 27.9846 34.5504 27.9812 34.7447C27.9777 34.939 27.899 35.1244 27.7616 35.2618C27.6242 35.3992 27.4388 35.4779 27.2445 35.4813C27.0502 35.4848 26.8622 35.4126 26.72 35.2802L19.97 28.5302C19.8295 28.3895 19.7507 28.1989 19.7507 28.0002C19.7507 27.8014 19.8295 27.6108 19.97 27.4702L26.72 20.7202C26.7887 20.6465 26.8715 20.5874 26.9635 20.5464C27.0555 20.5054 27.1548 20.4833 27.2555 20.4816C27.3562 20.4798 27.4562 20.4983 27.5496 20.536C27.643 20.5738 27.7278 20.6299 27.799 20.7011C27.8703 20.7723 27.9264 20.8572 27.9641 20.9506C28.0018 21.0439 28.0204 21.144 28.0186 21.2447C28.0168 21.3454 27.9948 21.4447 27.9538 21.5367C27.9128 21.6287 27.8537 21.7115 27.78 21.7802L22.31 27.2502L35.5 27.2502C35.6989 27.2502 35.8897 27.3292 36.0303 27.4698C36.171 27.6105 36.25 27.8012 36.25 28.0002V28.0002Z" fill="#E76B39"/>
<rect x="55.5" y="55.5" width="55" height="55" rx="27.5" transform="rotate(-180 55.5 55.5)" stroke="#E76B39"/>
</svg>
