<svg width="56" height="56" viewBox="0 0 56 56" fill="none" xmlns="http://www.w3.org/2000/svg">
<path fill-rule="evenodd" clip-rule="evenodd" d="M36.25 28C36.25 28.1989 36.171 28.3897 36.0303 28.5304C35.8897 28.671 35.6989 28.75 35.5 28.75L22.31 28.75L27.78 34.22C27.9125 34.3622 27.9846 34.5503 27.9812 34.7446C27.9777 34.9389 27.899 35.1242 27.7616 35.2617C27.6242 35.3991 27.4388 35.4778 27.2445 35.4812C27.0502 35.4846 26.8622 35.4125 26.72 35.28L19.97 28.53C19.8296 28.3894 19.7507 28.1988 19.7507 28C19.7507 27.8013 19.8296 27.6107 19.97 27.47L26.72 20.72C26.7887 20.6463 26.8715 20.5872 26.9635 20.5462C27.0555 20.5053 27.1548 20.4832 27.2555 20.4814C27.3562 20.4797 27.4562 20.4982 27.5496 20.5359C27.643 20.5736 27.7278 20.6298 27.799 20.701C27.8703 20.7722 27.9264 20.857 27.9641 20.9504C28.0018 21.0438 28.0204 21.1438 28.0186 21.2446C28.0168 21.3453 27.9948 21.4446 27.9538 21.5366C27.9128 21.6286 27.8537 21.7114 27.78 21.78L22.31 27.25L35.5 27.25C35.6989 27.25 35.8897 27.329 36.0303 27.4697C36.171 27.6104 36.25 27.8011 36.25 28Z" fill="white"/>
<rect x="55.5" y="55.5" width="55" height="55" rx="27.5" transform="rotate(-180 55.5 55.5)" stroke="white"/>
</svg>
