<svg width="56" height="56" viewBox="0 0 56 56" fill="none" xmlns="http://www.w3.org/2000/svg">
<path fill-rule="evenodd" clip-rule="evenodd" d="M19.75 27.9998C19.75 27.8009 19.829 27.6102 19.9697 27.4695C20.1103 27.3289 20.3011 27.2498 20.5 27.2498H33.69L28.22 21.7798C28.0875 21.6377 28.0154 21.4496 28.0188 21.2553C28.0223 21.061 28.101 20.8756 28.2384 20.7382C28.3758 20.6008 28.5612 20.5221 28.7555 20.5187C28.9498 20.5152 29.1378 20.5874 29.28 20.7198L36.03 27.4698C36.1705 27.6105 36.2493 27.8011 36.2493 27.9998C36.2493 28.1986 36.1705 28.3892 36.03 28.5298L29.28 35.2798C29.2113 35.3535 29.1285 35.4126 29.0365 35.4536C28.9445 35.4946 28.8452 35.5167 28.7445 35.5184C28.6438 35.5202 28.5438 35.5017 28.4504 35.464C28.357 35.4262 28.2722 35.3701 28.201 35.2989C28.1297 35.2277 28.0736 35.1428 28.0359 35.0494C27.9982 34.9561 27.9796 34.856 27.9814 34.7553C27.9832 34.6546 28.0052 34.5553 28.0462 34.4633C28.0872 34.3713 28.1463 34.2885 28.22 34.2198L33.69 28.7498H20.5C20.3011 28.7498 20.1103 28.6708 19.9697 28.5302C19.829 28.3895 19.75 28.1988 19.75 27.9998Z" fill="#E76B39"/>
<rect x="0.5" y="0.5" width="55" height="55" rx="27.5" stroke="#E76B39"/>
</svg>
