<svg width="56" height="56" viewBox="0 0 56 56" fill="none" xmlns="http://www.w3.org/2000/svg">
<path fill-rule="evenodd" clip-rule="evenodd" d="M19.75 28C19.75 27.8011 19.829 27.6103 19.9697 27.4696C20.1103 27.329 20.3011 27.25 20.5 27.25H33.69L28.22 21.78C28.0875 21.6378 28.0154 21.4497 28.0188 21.2554C28.0223 21.0611 28.101 20.8758 28.2384 20.7383C28.3758 20.6009 28.5612 20.5222 28.7555 20.5188C28.9498 20.5154 29.1378 20.5875 29.28 20.72L36.03 27.47C36.1705 27.6106 36.2493 27.8012 36.2493 28C36.2493 28.1987 36.1705 28.3893 36.03 28.53L29.28 35.28C29.2113 35.3537 29.1285 35.4128 29.0365 35.4537C28.9445 35.4947 28.8452 35.5168 28.7445 35.5186C28.6438 35.5203 28.5438 35.5018 28.4504 35.4641C28.357 35.4264 28.2722 35.3702 28.201 35.299C28.1297 35.2278 28.0736 35.143 28.0359 35.0496C27.9982 34.9562 27.9796 34.8561 27.9814 34.7554C27.9832 34.6547 28.0052 34.5554 28.0462 34.4634C28.0872 34.3714 28.1463 34.2886 28.22 34.22L33.69 28.75H20.5C20.3011 28.75 20.1103 28.671 19.9697 28.5303C19.829 28.3896 19.75 28.1989 19.75 28Z" fill="white"/>
<rect x="0.5" y="0.5" width="55" height="55" rx="27.5" stroke="white"/>
</svg>
