<svg width="33" height="32" viewBox="0 0 33 32" fill="none" xmlns="http://www.w3.org/2000/svg">
<path d="M22.166 8V9M22.166 13V14M22.166 18V19M22.166 23V24M10.166 17H17.166M10.166 20H14.166M4.66602 7C3.83802 7 3.16602 7.672 3.16602 8.5V12.5347C3.77501 12.8853 4.28085 13.3902 4.63257 13.9986C4.9843 14.607 5.16949 15.2973 5.16949 16C5.16949 16.7027 4.9843 17.393 4.63257 18.0014C4.28085 18.6098 3.77501 19.1147 3.16602 19.4653V23.5C3.16602 24.328 3.83802 25 4.66602 25H27.666C28.494 25 29.166 24.328 29.166 23.5V19.4653C28.557 19.1147 28.0512 18.6098 27.6995 18.0014C27.3477 17.393 27.1625 16.7027 27.1625 16C27.1625 15.2973 27.3477 14.607 27.6995 13.9986C28.0512 13.3902 28.557 12.8853 29.166 12.5347V8.5C29.166 7.672 28.494 7 27.666 7H4.66602Z" stroke="#9AA1B9" stroke-width="2" stroke-linecap="round" stroke-linejoin="round"/>
</svg>
