<svg width="33" height="32" viewBox="0 0 33 32" fill="none" xmlns="http://www.w3.org/2000/svg">
<path d="M3.5 11H29.5M3.5 12H29.5M7.5 19H15.5M7.5 22H11.5M6.5 26H26.5C27.2957 26 28.0587 25.6839 28.6213 25.1213C29.1839 24.5587 29.5 23.7956 29.5 23V9C29.5 8.20435 29.1839 7.44129 28.6213 6.87868C28.0587 6.31607 27.2957 6 26.5 6H6.5C5.70435 6 4.94129 6.31607 4.37868 6.87868C3.81607 7.44129 3.5 8.20435 3.5 9V23C3.5 23.7956 3.81607 24.5587 4.37868 25.1213C4.94129 25.6839 5.70435 26 6.5 26Z" stroke="#9AA1B9" stroke-width="2" stroke-linecap="round" stroke-linejoin="round"/>
</svg>
